<svg width="147" height="147" viewBox="0 0 147 147" fill="none" xmlns="http://www.w3.org/2000/svg">
<g filter="url(#filter0_i_68_1614)">
<path fill-rule="evenodd" clip-rule="evenodd" d="M6.38672 17.5957C6.38672 14.6265 7.56622 11.7789 9.66574 9.67943C11.7653 7.5799 14.6128 6.40041 17.582 6.40041H129.181C130.653 6.398 132.11 6.68585 133.47 7.24746C134.83 7.80908 136.066 8.63343 137.107 9.67333C138.148 10.7132 138.974 11.9482 139.537 13.3077C140.1 14.6671 140.39 16.1242 140.389 17.5957V129.195C140.391 130.667 140.102 132.124 139.54 133.485C138.977 134.845 138.152 136.08 137.112 137.121C136.072 138.162 134.836 138.988 133.476 139.551C132.117 140.114 130.659 140.403 129.188 140.403H17.582C16.1113 140.403 14.655 140.113 13.2963 139.55C11.9377 138.987 10.7032 138.162 9.66359 137.121C8.62393 136.081 7.79942 134.846 7.23716 133.487C6.6749 132.128 6.38592 130.672 6.38672 129.201V17.5957ZM59.4272 57.4918H77.5723V66.6039C80.1915 61.3657 86.8916 56.6512 96.96 56.6512C116.262 56.6512 120.837 67.0851 120.837 86.2292V121.691H101.303V90.5903C101.303 79.6874 98.6838 73.5355 92.0324 73.5355C82.8045 73.5355 78.9672 80.1686 78.9672 90.5903V121.691H59.4272V57.4918ZM25.9267 120.857H45.4666V56.6512H25.9267V120.85V120.857ZM48.2624 35.7103C48.2993 37.3834 48.0015 39.0469 47.3868 40.6033C46.772 42.1598 45.8525 43.5777 44.6823 44.774C43.5121 45.9702 42.1147 46.9207 40.5722 47.5696C39.0297 48.2185 37.3731 48.5527 35.6997 48.5527C34.0263 48.5527 32.3697 48.2185 30.8272 47.5696C29.2847 46.9207 27.8873 45.9702 26.7171 44.774C25.5469 43.5777 24.6274 42.1598 24.0126 40.6033C23.3979 39.0469 23.1002 37.3834 23.137 35.7103C23.2093 32.4264 24.5646 29.3013 26.9127 27.0044C29.2608 24.7074 32.415 23.4212 35.6997 23.4212C38.9844 23.4212 42.1386 24.7074 44.4867 27.0044C46.8348 29.3013 48.1901 32.4264 48.2624 35.7103V35.7103Z" fill="#EBE9E9"/>
</g>
<defs>
<filter id="filter0_i_68_1614" x="0.295898" y="0.309082" width="146.185" height="150.184" filterUnits="userSpaceOnUse" color-interpolation-filters="sRGB">
<feFlood flood-opacity="0" result="BackgroundImageFix"/>
<feBlend mode="normal" in="SourceGraphic" in2="BackgroundImageFix" result="shape"/>
<feColorMatrix in="SourceAlpha" type="matrix" values="0 0 0 0 0 0 0 0 0 0 0 0 0 0 0 0 0 0 127 0" result="hardAlpha"/>
<feOffset dy="4"/>
<feGaussianBlur stdDeviation="7.5"/>
<feComposite in2="hardAlpha" operator="arithmetic" k2="-1" k3="1"/>
<feColorMatrix type="matrix" values="0 0 0 0 0 0 0 0 0 0 0 0 0 0 0 0 0 0 0.2 0"/>
<feBlend mode="normal" in2="shape" result="effect1_innerShadow_68_1614"/>
</filter>
</defs>
</svg>
