<svg version="1.1" xmlns="http://www.w3.org/2000/svg" x="0px" y="0px" width="300px" height="300px" fill="#0f0f0f" viewBox="-155 247 300 300" style="enable-background:new -155 247 300 300;"><path class="st0" d="M-5,265c-72.9016113,0-132,59.0983887-132,132S-77.9016113,529-5,529s132-59.0984497,132-132 S67.9016113,265-5,265z M-5.47052,468.3762817c-7.4328003,0-13.4794922-6.0470581-13.4794922-13.4790649 c0-7.4320679,6.0466919-13.479126,13.4794922-13.479126c7.432373,0,13.4794922,6.0470581,13.4794922,13.479126 C8.0089722,462.3292236,1.961853,468.3762817-5.47052,468.3762817z M34.1941528,371.9846802 c-2.6166992,12.1121216-11.4063721,21.4836426-19.1619263,29.7519531c-0.956665,1.0199585-1.8609619,1.9437866-2.7167969,2.8183594 c-3.1091309,3.1724243-4.4174805,4.5682983-5.5913696,7.2835083c-1.3748169,3.1787109-1.890686,6.8474121-1.5335083,10.9046021 c0.4846191,5.5038452-3.5842896,10.3590088-9.0881348,10.8435669c-0.298584,0.0258179-0.5952148,0.0391235-0.8890381,0.0391235 c-5.1287231,0-9.4957886-3.9219971-9.9542236-9.1272583c-0.6522217-7.40625,0.3908081-14.3372803,3.0997314-20.602417 c2.6948853-6.2315063,6.2381592-9.8479004,9.6646118-13.3450317c0.7612915-0.7765503,1.5654907-1.5960083,2.4151001-2.5018311 c6.2698364-6.6848755,12.7529907-13.5967407,14.1989136-20.2897949c1.2380371-5.7316895-0.3782959-13.9069824-5.8634033-18.4417114 c-6.9536743-5.7469482-18.0630493-4.09198-24.7865601,0.8272705c-10.0702515,7.3675537-8.9369507,21.3914185-8.9244385,21.5324707 c0.5568848,5.4968872-3.4495239,10.3880005-8.9467163,10.9448853c-5.5003662,0.5560913-10.406311-3.4647827-10.9631958-8.9619751 c-0.953125-9.4090576,1.5588379-28.3513794,17.0200195-39.6635132c13.0418091-9.5411377,34.1811523-12.6392822,49.3492432-0.1000366 C33.7728882,344.0241089,36.7139893,360.3235474,34.1941528,371.9846802z"/></svg>