<?xml version="1.0" encoding="utf-8"?>
<!-- Generator: Adobe Illustrator 27.0.0, SVG Export Plug-In . SVG Version: 6.00 Build 0)  -->
<svg version="1.1" id="Layer_1" xmlns="http://www.w3.org/2000/svg" xmlns:xlink="http://www.w3.org/1999/xlink" x="0px" y="0px"
	 viewBox="0 0 1190.8 724" style="enable-background:new 0 0 1190.8 724;" xml:space="preserve">
<style type="text/css">
	.st0{fill:none;}
	.st1{fill:url(#Path_1_00000008856455200463709480000010737090117746771621_);}
	.st2{fill:url(#Path_2_00000158708268053172542920000005630376100835962786_);}
	.st3{clip-path:url(#SVGID_00000176044641124656412270000009779844380096129438_);}
	.st4{opacity:0.19;fill:url(#Path_3_00000114051931307893435080000000861949975465201064_);enable-background:new    ;}
	.st5{opacity:0.25;fill:url(#Path_4_00000112625892950995081800000004922082571205161894_);enable-background:new    ;}
	.st6{opacity:0.16;fill:url(#Path_5_00000176762122860817887110000005596059521392304016_);enable-background:new    ;}
	.st7{fill:url(#Path_7_00000150092304697734367680000010327980437412269469_);}
	.st8{fill:url(#Path_8_00000060743992570294207290000016552825757696831628_);}
	.st9{clip-path:url(#SVGID_00000082326021863356199820000004766588616396565131_);}
	.st10{opacity:0.19;fill:url(#Path_9_00000144299158822719675690000007518784825388758920_);enable-background:new    ;}
	.st11{fill:url(#Path_11_00000182501740682580308740000016845212299202773411_);}
	.st12{fill:url(#Path_12_00000013897075816281634830000006490930560471518364_);}
</style>
<g id="Asset_1" transform="translate(-344.34 -255.53)">
	<g id="Layer_2_00000015316477324558184280000012527741044732749449_">
		<g id="OBJECTS">
			<rect id="Rectangle_1" x="344.3" y="255.5" class="st0" width="1184.7" height="724"/>
			
				<linearGradient id="Path_1_00000109740108506579372460000001396256153972135069_" gradientUnits="userSpaceOnUse" x1="641.3245" y1="1038.025" x2="642.6785" y2="1036.8821" gradientTransform="matrix(1009.33 0 0 -724 -646506.9375 752012.5)">
				<stop  offset="0.11" style="stop-color:#3dac9fc9"/>
				<stop  offset="0.84" style="stop-color:#3dac9fd1"/>
				<stop  offset="1" style="stop-color:#32cfbc"/>
			</linearGradient>
			<path id="Path_1" style="fill:url(#Path_1_00000109740108506579372460000001396256153972135069_);" d="M971.2,457.8
				c86.3,193.8,93.4,306.2-197,379.9c-155.2,39.4-224,96.8-254.5,141.8h1009.3v-724H935.6C917.2,309.5,935,376.4,971.2,457.8z"/>
			
				<linearGradient id="Path_2_00000031193769874008523600000016629564308548887186_" gradientUnits="userSpaceOnUse" x1="641.0294" y1="1037.8384" x2="642.0294" y2="1037.8384" gradientTransform="matrix(956.33 0 0 -724 -612456.9375 752012.5)">
				<stop  offset="0.11" style="stop-color:#31b4a4"/>
				<stop  offset="0.63" style="stop-color:#3dac9f"/>
				<stop  offset="1" style="stop-color:#31a396"/>
			</linearGradient>
			<path id="Path_2" style="fill:url(#Path_2_00000031193769874008523600000016629564308548887186_);" d="M1006.7,467.6
				c78.2,175.8,84.7,277.7-178.7,344.6c-192.1,48.7-238.3,128-249.2,167.4h956.3v-724H988.8C951.7,308.8,967.1,378.6,1006.7,467.6z"
				/>
			<g>
				<defs>
					<path id="SVGID_1_" d="M1006.7,467.6c78.2,175.8,84.7,277.7-178.7,344.6c-192.1,48.7-238.3,128-249.2,167.4h956.3v-724H988.8
						C951.7,308.8,967.1,378.6,1006.7,467.6z"/>
				</defs>
				<clipPath id="SVGID_00000085250604928018707510000009983967635306412185_">
					<use xlink:href="#SVGID_1_"  style="overflow:visible;"/>
				</clipPath>
				<g id="Group_1" style="clip-path:url(#SVGID_00000085250604928018707510000009983967635306412185_);">
					
						<radialGradient id="Path_3_00000088115564259985884290000018425671715924985265_" cx="641.3631" cy="1037.8738" r="0.529" gradientTransform="matrix(536.2134 0 0 -535.97 -342778.1562 557146.8125)" gradientUnits="userSpaceOnUse">
						<stop  offset="0" style="stop-color:#FFFFFF"/>
						<stop  offset="0.25" style="stop-color:#B9B9B9;stop-opacity:0.729"/>
						<stop  offset="0.62" style="stop-color:#575757;stop-opacity:0.341"/>
						<stop  offset="0.88" style="stop-color:#181818;stop-opacity:9.000000e-02"/>
						<stop  offset="1" style="stop-color:#000000;stop-opacity:0"/>
					</radialGradient>
					
						<path id="Path_3" style="opacity:0.19;fill:url(#Path_3_00000088115564259985884290000018425671715924985265_);enable-background:new    ;" d="
						M1376.9,765.5h20l10.2-17.6l-10-17.3l10-17.3l-10.2-17.6h-20l-9.8-16.9l10-17.3L1367,644h-20.3l-10,17.3h-19.5l-10-17.3h-20.3
						l-10,17.3h-19.5l-10-17.3H1227l-10,17.3h-19.5l-10-17.3h-20.3l-10,17.3h-19.5l-10-17.3h-20.3l-10,17.3h-19.5l-10-17.3h-20.3
						l-10,17.3H1018l-10-17.3h-20.3l-10,17.3h-19.5l-10-17.3h-20.3l-10,17.3h-19.6l-10-17.3h-20.3l-10,17.3h-19.5l-10-17.3h-20.3
						l-10,17.3h-19.9l-10.2,17.6l10.2,17.6h20l9.8,16.9l-10,17.3l10,17.3l-9.8,16.9h-20l-10.2,17.6l10.2,17.6h20l9.8,16.9l-10,17.3
						l10,17.3l-9.8,16.9h-20l-10.2,17.6l10.2,17.6h20l9.8,16.9l-10,17.3l10,17.3l-9.8,16.9h-20l-10.2,17.6l10.2,17.6h20l9.8,16.9
						l-10,17.3l10,17.3l-9.8,16.9h-20l-10.2,17.6l10.2,17.6h20l9.8,16.9l-10,17.3l10.2,17.6h20l10,17.3h20.3l10-17.3h19.5l10,17.3
						h20.3l10-17.3h19.5l10,17.3h20.3l10-17.3h19.5l10,17.3h20.3l10-17.3h19.6l10,17.3h20.3l10-17.3h19.4l10,17.3h20.3l10-17.3h19.5
						l10,17.3h20.3l10-17.3h19.5l10,17.3h20.3l10-17.3h19.6l10,17.3h20.3l10-17.3h19.5l10,17.3h20.3l10.2-17.6l-10-17.3l10-17.3
						l-10.2-17.6h-20l-9.8-16.9l9.8-16.9h20l10.2-17.6l-10-17.3l10-17.3l-10.2-17.6h-20l-9.8-16.9l9.8-16.9h20l10.2-17.6l-10-17.3
						l10-17.3l-10.2-17.6h-20l-9.8-16.9l9.8-16.9h20l10-17.6l-10-17.3l10-17.3l-10.2-17.6h-20l-9.8-16.9L1376.9,765.5z
						 M1366.6,782.1H1347l-9.8-16.9l9.8-17h19.5l9.8,16.9L1366.6,782.1z M1366.6,817.3l9.8,16.9l-9.8,16.9H1347l-9.8-16.9l9.8-16.9
						H1366.6z M1366.6,920.9l9.8,16.9l-9.8,16.9H1347l-9.8-16.9l9.8-16.9H1366.6z M1366.6,1024.5l9.8,16.9l-9.8,16.9H1347l-9.8-16.9
						l9.8-16.9H1366.6z M1366.6,1128.1l9.8,16.9l-9.8,16.9H1347l-9.8-16.9l9.8-16.9H1366.6z M1317.1,1144.7l-9.8-16.9l9.8-16.9h19.5
						l9.8,16.9l-9.8,16.9H1317.1z M1257.3,1144.7l-9.8-16.9l9.8-16.9h19.5l9.8,16.9l-9.8,16.9H1257.3z M1197.5,1144.7l-9.8-16.9
						l9.8-16.9h19.5l9.8,16.9l-9.8,16.9H1197.5z M1137.7,1144.7l-9.8-16.9l9.8-16.9h19.5l9.8,16.9l-9.8,16.9H1137.7z M1077.9,1144.7
						l-9.8-16.9l9.8-16.9h19.5l9.8,16.9l-9.8,16.9H1077.9z M1018,1144.7l-9.8-16.9l9.8-16.9h19.5l9.8,16.9l-9.8,16.9H1018z
						 M958.2,1144.7l-9.8-16.9l9.8-16.9h19.5l9.8,16.9l-9.8,16.9H958.2z M898.4,1144.7l-9.8-16.9l9.8-16.9h19.5l9.8,16.9l-9.8,16.9
						H898.4z M838.6,1144.7l-9.8-16.9l9.8-16.9h19.5l9.8,16.9l-9.8,16.9H838.6z M888,679.2l9.8,17L888,713h-19.5l-9.8-17l9.8-16.9
						L888,679.2z M947.8,679.2l9.8,17l-9.8,16.9h-19.5l-9.8-17l9.8-16.9H947.8z M1007.6,679.2l9.8,17l-9.8,16.9h-19.5l-9.8-17
						l9.8-16.9H1007.6z M1067.4,679.2l9.8,17l-9.8,16.9H1048l-9.8-17l9.8-16.9L1067.4,679.2z M1127.2,679.2l9.8,17l-9.7,16.9h-19.6
						l-9.8-17l9.8-16.9L1127.2,679.2z M1187.1,679.2l9.8,17l-9.8,16.9h-19.5l-9.8-17l9.8-16.9L1187.1,679.2z M1246.9,679.2l9.8,17
						l-9.8,16.9h-19.5l-9.8-17l9.7-16.9H1246.9z M1306.7,679.2l9.8,17l-9.8,16.9h-19.5l-9.8-17l9.8-16.9L1306.7,679.2z
						 M1366.6,713.7l9.8,16.9l-9.8,16.9H1347l-9.8-16.9l9.8-16.9L1366.6,713.7z M1287.2,1127.5l-9.8-17l9.8-16.9h19.5l9.8,17
						l-9.8,16.9L1287.2,1127.5z M1227.4,1127.5l-9.8-17l9.7-16.8h19.5l9.8,16.9l-9.8,16.9L1227.4,1127.5z M1167.6,1127.5l-9.8-17
						l9.8-16.9h19.5l9.8,17l-9.8,16.9L1167.6,1127.5z M1107.8,1127.5l-9.8-17l9.8-16.9h19.5l9.8,17l-9.7,16.9H1107.8z M1048,1127.5
						l-9.8-17l9.8-16.9h19.5l9.8,17l-9.8,16.9L1048,1127.5z M988.1,1127.5l-9.8-16.9l9.8-16.9h19.5l9.8,16.9l-9.8,16.9L988.1,1127.5
						z M928.3,1127.5l-9.8-17l9.8-16.8h19.5l9.7,16.9l-9.8,16.9L928.3,1127.5z M868.5,1127.5l-9.8-17l9.8-16.9H888l9.8,17l-9.8,16.9
						L868.5,1127.5z M888,713.7l9.8,16.9l-9.8,16.9h-19.5l-9.8-16.9l9.8-16.9L888,713.7z M947.8,713.7l9.8,16.9l-9.8,16.9h-19.5
						l-9.8-16.9l9.8-16.9H947.8z M1007.6,713.7l9.8,16.9l-9.8,16.9h-19.5l-9.8-16.9l9.8-16.9H1007.6z M1067.5,713.7l9.8,16.9
						l-9.8,16.9H1048l-9.8-16.9l9.8-16.9L1067.5,713.7z M1127.3,713.7l9.8,16.9l-9.7,16.9h-19.6l-9.8-16.9l9.8-16.9L1127.3,713.7z
						 M1187.1,713.7l9.8,16.9l-9.8,16.9h-19.5l-9.8-16.9l9.8-16.9L1187.1,713.7z M1246.9,713.7l9.8,16.9l-9.8,16.9h-19.5l-9.8-16.9
						l9.8-16.9L1246.9,713.7z M1306.7,713.7l9.8,16.9l-9.8,16.9h-19.5l-9.8-16.9l9.8-16.9L1306.7,713.7z M1317.1,1075.7l-9.8-16.9
						l9.8-16.9h19.5l9.8,16.9l-9.8,16.9H1317.1z M1287.2,1092.9l-9.8-16.9l9.8-17h19.5l9.8,16.9l-9.8,16.9L1287.2,1092.9z
						 M1227.4,1092.9l-9.8-16.9l9.8-17h19.5l9.8,16.9l-9.8,16.9L1227.4,1092.9z M1167.6,1092.9l-9.8-16.9l9.8-17h19.5l9.8,16.9
						l-9.8,16.9L1167.6,1092.9z M1107.8,1092.9l-9.8-16.9l9.8-17h19.6l9.8,16.9l-9.8,16.9L1107.8,1092.9z M1047.9,1092.9l-9.8-16.9
						l9.8-17h19.5l9.8,16.9l-9.8,16.9L1047.9,1092.9z M988.1,1092.9l-9.8-16.9l9.8-17h19.5l9.8,16.9l-9.8,16.9L988.1,1092.9z
						 M928.3,1092.9l-9.8-16.9l9.8-17h19.5l9.8,16.9l-9.8,16.9L928.3,1092.9z M868.5,1092.9l-9.8-16.9l9.8-17H888l9.8,16.9
						l-9.8,16.9L868.5,1092.9z M838.6,1075.7l-9.8-16.9l9.8-16.9h19.5l9.8,16.9l-9.8,16.9H838.6z M858.1,731l9.8,16.9l-9.8,16.9
						h-19.5l-9.8-16.9l9.8-16.9H858.1z M888,748.3l9.8,16.9l-9.8,17h-19.5l-9.8-16.9l9.8-17L888,748.3z M917.9,731l9.8,16.9
						l-9.8,16.9h-19.5l-9.8-16.9l9.8-16.9H917.9z M947.8,748.3l9.8,16.9l-9.8,17h-19.5l-9.8-16.9l9.8-17H947.8z M977.7,731l9.8,16.9
						l-9.8,16.9h-19.5l-9.8-16.9l9.8-16.9H977.7z M1007.6,748.3l9.8,16.9l-9.8,17h-19.5l-9.8-16.9l9.8-17H1007.6z M1037.6,731
						l9.8,16.9l-9.8,16.9H1018l-9.8-16.9l9.8-16.9L1037.6,731z M1067.5,748.3l9.8,16.9l-9.8,17h-19.5l-9.8-16.9l9.8-17L1067.5,748.3
						z M1097.3,731l9.8,16.9l-9.8,16.9h-19.5l-9.8-16.9l9.8-16.9H1097.3z M1127.3,748.3l9.8,16.9l-9.8,17h-19.5l-9.8-16.9l9.8-17
						L1127.3,748.3z M1157.2,731l9.8,16.9l-9.8,16.9h-19.6l-9.8-16.9l9.8-16.9H1157.2z M1187.2,748.3l9.8,16.9l-9.8,17h-19.6
						l-9.8-16.9l9.8-17L1187.2,748.3z M1217.1,731l9.8,16.9l-9.8,16.9h-19.5l-9.8-16.9l9.8-16.9H1217.1z M1247,748.3l9.8,16.9
						l-9.8,17h-19.6l-9.8-16.9l9.8-17L1247,748.3z M1276.9,731l9.8,16.9l-9.8,16.9h-19.5l-9.8-16.9l9.8-16.9H1276.9z M1306.8,748.3
						l9.8,16.9l-9.8,17h-19.6l-9.8-16.9l9.8-17L1306.8,748.3z M1336.7,731l9.8,16.9l-9.8,16.9h-19.6l-9.8-16.9l9.8-16.9L1336.7,731z
						 M1287.3,1058.4l-9.8-16.9l9.7-16.9h19.5l9.8,16.9l-9.8,16.9L1287.3,1058.4z M1257.3,1041.1l-9.8-16.9l9.8-16.9h19.5l9.8,16.9
						l-9.8,16.9H1257.3z M1227.4,1058.4l-9.8-16.9l9.8-16.9h19.5l9.8,16.9l-9.8,16.9L1227.4,1058.4z M1197.5,1041.1l-9.8-16.9
						l9.8-16.9h19.5l9.8,16.9l-9.8,16.9H1197.5z M1167.6,1058.4l-9.8-16.9l9.8-16.9h19.5l9.8,16.9l-9.8,16.9L1167.6,1058.4z
						 M1137.7,1041.1l-9.8-16.9l9.8-16.9h19.5l9.8,16.9l-9.8,16.9H1137.7z M1107.8,1058.4l-9.8-16.9l9.8-16.9h19.6l9.8,16.9
						l-9.8,16.9H1107.8z M1077.9,1041.1l-9.8-16.9l9.8-16.9h19.5l9.8,16.9l-9.8,16.9H1077.9z M1048,1058.4l-9.8-16.9l9.8-16.9h19.5
						l9.8,16.9l-9.8,16.9L1048,1058.4z M1018.1,1041.1l-9.8-16.9l9.8-16.9h19.5l9.8,16.9l-9.8,16.9H1018.1z M988.2,1058.4l-9.8-16.9
						l9.8-16.9h19.5l9.8,16.9l-9.8,16.9L988.2,1058.4z M958.2,1041.1l-9.8-16.9l9.8-16.9h19.5l9.8,16.9l-9.8,16.9H958.2z
						 M928.3,1058.4l-9.8-16.9l9.8-16.9h19.5l9.8,16.9l-9.8,16.9L928.3,1058.4z M898.4,1041.1l-9.8-16.9l9.8-16.9h19.5l9.8,16.9
						l-9.8,16.9H898.4z M868.5,1058.4l-9.8-16.9l9.8-16.9H888l9.8,16.9l-9.8,16.9L868.5,1058.4z M888,782.8l9.8,17l-9.8,16.9h-19.5
						l-9.8-17l9.8-16.9L888,782.8z M947.8,782.8l9.8,17l-9.8,16.9h-19.5l-9.8-17l9.8-16.9L947.8,782.8z M1007.6,782.8l9.8,17
						l-9.8,16.9h-19.5l-9.8-17l9.8-16.9L1007.6,782.8z M1067.4,782.8l9.8,17l-9.8,16.9H1048l-9.8-17l9.8-16.9L1067.4,782.8z
						 M1127.3,782.8l9.8,17l-9.7,16.8h-19.6l-9.8-17l9.8-16.9L1127.3,782.8z M1187.1,782.8l9.8,17l-9.8,16.9h-19.5l-9.8-17l9.8-16.9
						L1187.1,782.8z M1246.9,782.8l9.8,17l-9.8,16.9h-19.5l-9.8-17l9.8-16.9L1246.9,782.8z M1306.7,782.8l9.8,17l-9.8,16.9h-19.5
						l-9.8-17l9.8-16.9L1306.7,782.8z M1306.7,1023.9h-19.5l-9.8-17l9.8-16.9h19.5l9.8,17L1306.7,1023.9z M1227.4,1023.9l-9.8-17
						l9.8-16.9h19.5l9.8,17l-9.8,16.9L1227.4,1023.9z M1167.6,1023.9l-9.8-17l9.8-16.9h19.5l9.8,17l-9.8,16.9L1167.6,1023.9z
						 M1107.8,1023.9l-9.8-17l9.8-16.9h19.5l9.8,17l-9.7,16.9H1107.8z M1047.9,1023.9l-9.8-17l9.8-16.9h19.5l9.8,17l-9.8,16.9
						L1047.9,1023.9z M988.1,1023.9l-9.8-17l9.8-16.9h19.5l9.8,17l-9.8,16.9L988.1,1023.9z M928.3,1023.9l-9.8-17l9.8-16.9h19.5
						l9.8,17l-9.8,16.9L928.3,1023.9z M868.5,1023.9l-9.8-17l9.8-16.9H888l9.8,17l-9.8,16.9L868.5,1023.9z M888,817.3l9.8,16.9
						l-9.8,16.9h-19.5l-9.8-16.9l9.8-16.9H888z M947.8,817.3l9.8,16.9l-9.8,16.9h-19.5l-9.8-16.9l9.8-16.9H947.8z M1007.6,817.3
						l9.8,16.9l-9.8,16.9h-19.5l-9.8-16.9l9.8-16.9H1007.6z M1067.5,817.3l9.8,16.9l-9.8,16.9H1048l-9.8-16.9l9.8-16.9H1067.5z
						 M1127.3,817.3l9.8,16.9l-9.7,16.9h-19.6l-9.8-16.9l9.8-16.9L1127.3,817.3z M1187.1,817.3l9.8,16.9l-9.8,16.9h-19.5l-9.8-16.9
						l9.8-16.9H1187.1z M1246.9,817.3l9.8,16.9l-9.8,16.9h-19.5l-9.8-16.9l9.8-16.9H1246.9z M1306.7,817.3l9.8,16.9l-9.8,16.9h-19.5
						l-9.8-16.9l9.8-16.9H1306.7z M1306.7,920.9l9.8,16.9l-9.8,16.9h-19.5l-9.8-16.9l9.8-16.9H1306.7z M1227.3,989.3l-9.8-16.9
						l9.8-17h19.5l9.8,16.9l-9.8,17L1227.3,989.3z M1167.5,989.3l-9.8-16.9l9.8-17h19.5l9.8,16.9l-9.8,17L1167.5,989.3z
						 M1107.7,989.3l-9.8-16.9l9.8-17h19.6l9.8,16.9l-9.8,17L1107.7,989.3z M1047.9,989.3l-9.8-16.9l9.8-17h19.5l9.8,16.9l-9.8,17
						L1047.9,989.3z M988.1,989.3l-9.7-16.9l9.8-17h19.5l9.8,16.9l-9.8,17L988.1,989.3z M928.2,989.3l-9.8-16.9l9.8-16.9h19.5
						l9.8,16.9l-9.8,17L928.2,989.3z M868.5,954.8l-9.8-16.9l9.8-16.9H888l9.8,16.9l-9.8,16.9H868.5z M917.9,834.6l9.8,16.9
						l-9.8,16.9h-19.5l-9.8-16.9l9.8-16.9L917.9,834.6z M947.8,851.9l9.8,16.9l-9.8,17h-19.4l-9.8-16.9l9.8-17L947.8,851.9z
						 M977.7,834.6l9.8,16.9l-9.8,16.9h-19.5l-9.8-16.9l9.8-16.9L977.7,834.6z M1007.6,851.9l9.8,16.9l-9.8,17h-19.5l-9.8-16.9
						l9.8-17L1007.6,851.9z M1037.5,834.6l9.8,16.9l-9.8,16.9H1018l-9.8-16.9l9.8-16.9L1037.5,834.6z M1067.4,851.9l9.8,16.9
						l-9.8,17h-19.5l-9.8-16.9l9.8-17L1067.4,851.9z M1097.3,834.6l9.8,16.9l-9.8,16.9h-19.5l-9.8-16.9l9.8-16.9L1097.3,834.6z
						 M1127.3,851.9l9.8,16.9l-9.8,17h-19.5l-9.8-16.9l9.8-17L1127.3,851.9z M1157.2,834.6l9.7,16.9l-9.8,16.9h-19.5l-9.8-16.9
						l9.8-16.9L1157.2,834.6z M1187.2,851.9l9.8,16.9l-9.8,17h-19.6l-9.8-16.9l9.8-17L1187.2,851.9z M1217.1,834.6l9.7,16.9
						l-9.8,16.9h-19.5l-9.8-16.9l9.8-16.9L1217.1,834.6z M1247,851.9l9.8,16.9l-9.8,17h-19.6l-9.8-16.9l9.8-17L1247,851.9z
						 M1276.9,834.6l9.7,16.9l-9.8,16.9h-19.5l-9.8-16.9l9.8-16.9H1276.9z M1257.3,937.5l-9.8-16.9l9.8-16.9h19.5l9.8,16.9
						l-9.8,16.9H1257.3z M1227.4,954.8l-9.8-16.9l9.8-16.9h19.5l9.8,16.9l-9.8,16.9H1227.4z M1197.5,937.5l-9.8-16.9l9.8-16.9h19.5
						l9.8,16.9l-9.8,16.9H1197.5z M1167.6,954.8l-9.8-16.9l9.8-16.9h19.5l9.8,16.9l-9.8,16.9H1167.6z M1137.7,937.5l-9.8-16.9
						l9.8-16.9h19.5l9.8,16.9l-9.8,16.9H1137.7z M1107.8,954.8l-9.8-16.9l9.8-16.9h19.6l9.8,16.9l-9.8,16.9L1107.8,954.8z
						 M1077.9,937.5l-9.8-16.9l9.8-16.9h19.5l9.8,16.9l-9.8,16.9H1077.9z M1048,954.8l-9.8-16.9l9.8-16.9h19.5l9.8,16.9l-9.8,16.9
						H1048z M1018,937.5l-9.8-16.9l9.8-16.9h19.5l9.8,16.9l-9.8,16.9H1018z M988.1,954.8l-9.8-16.9l9.8-16.9h19.5l9.8,16.9
						l-9.8,16.9L988.1,954.8z M958.2,937.5l-9.8-16.9l9.8-16.9h19.5l9.8,16.9l-9.8,16.9H958.2z M928.3,954.8l-9.8-16.9l9.8-16.9
						h19.5l9.8,16.9l-9.8,16.9H928.3z M898.4,937.5l-9.8-16.9l9.8-16.9h19.5l9.8,16.9l-9.8,16.9H898.4z M947.8,886.4l9.8,17
						l-9.8,16.9h-19.5l-9.8-17l9.8-16.9L947.8,886.4z M1007.6,886.4l9.8,17l-9.8,16.9h-19.5l-9.8-17l9.8-16.9L1007.6,886.4z
						 M1067.4,886.4l9.8,17l-9.8,16.9H1048l-9.8-17l9.8-16.9L1067.4,886.4z M1127.2,886.4l9.8,17l-9.7,16.8h-19.6l-9.8-17l9.8-16.9
						L1127.2,886.4z M1187.1,886.4l9.8,17l-9.8,16.9h-19.5l-9.8-17l9.8-16.9L1187.1,886.4z M1246.9,886.4l9.8,17l-9.8,16.9h-19.5
						l-9.8-17l9.7-16.9L1246.9,886.4z M1276.8,869.2l9.8,16.9l-9.8,16.9h-19.5l-9.8-16.9l9.8-17L1276.8,869.2z M1217,869.2l9.8,16.9
						L1217,903h-19.5l-9.8-16.9l9.8-16.9H1217z M1157.2,869.2l9.8,16.9l-9.8,16.9h-19.5l-9.8-16.9l9.8-16.9H1157.2z M1097.3,869.2
						l9.8,16.9l-9.8,16.9h-19.5l-9.8-16.9l9.8-16.9L1097.3,869.2z M1037.5,869.2l9.8,16.9l-9.8,16.9H1018l-9.8-16.9l9.8-16.9
						L1037.5,869.2z M977.7,869.2l9.8,16.9l-9.8,16.9h-19.5l-9.8-16.9l9.8-16.9H977.7z M917.9,869.2l9.8,16.9l-9.8,16.9h-19.5
						l-9.8-16.9l9.8-17L917.9,869.2z M898.4,972.1l-9.8-16.9l9.8-16.9h19.5l9.8,16.9l-9.8,16.9H898.4z M958.2,972.1l-9.8-16.9
						l9.8-16.9h19.5l9.8,16.9l-9.8,16.9H958.2z M1018,972.1l-9.8-16.9l9.8-16.9h19.5l9.8,16.9l-9.8,16.9L1018,972.1z M1077.9,972.1
						l-9.8-16.9l9.8-16.9h19.5l9.8,16.9l-9.8,16.9H1077.9z M1137.7,972.1l-9.8-16.9l9.8-16.9h19.5l9.8,16.9l-9.8,16.9H1137.7z
						 M1197.5,972.1l-9.8-16.9l9.8-16.9h19.5l9.8,16.9L1217,972L1197.5,972.1z M1257.3,972.1l-9.8-16.9l9.8-16.9h19.5l9.8,16.9
						l-9.8,16.9L1257.3,972.1z M1276.8,800.1l9.8,16.9l-9.8,16.9h-19.5l-9.8-16.9l9.8-16.9L1276.8,800.1z M1217,800.1l9.8,16.9
						l-9.8,16.9h-19.5l-9.8-16.9l9.8-16.9H1217z M1157.2,800.1l9.8,16.9l-9.8,16.9h-19.5l-9.8-16.9l9.8-16.9H1157.2z M1097.4,800.1
						l9.8,16.9l-9.8,16.9h-19.5l-9.8-16.9l9.8-16.9L1097.4,800.1z M1037.6,800.1l9.8,16.9l-9.8,16.9H1018l-9.8-16.9l9.8-16.9
						L1037.6,800.1z M977.7,800.1l9.8,16.9l-9.8,16.9h-19.5l-9.8-16.9l9.8-16.9H977.7z M917.9,800.1l9.8,16.9l-9.8,16.9h-19.5
						l-9.8-16.9l9.8-16.9H917.9z M868.5,851.9H888l9.8,16.9l-9.8,17h-19.5l-9.8-16.9L868.5,851.9z M868.5,886.4H888l9.8,17
						l-9.8,16.9h-19.5l-9.8-17L868.5,886.4z M868.5,955.5H888l9.8,16.9l-9.8,17h-19.5l-9.8-16.9L868.5,955.5z M898.3,1006.6
						l-9.8-16.9l9.8-16.9h19.5l9.8,16.9l-9.8,16.9H898.3z M958.2,1006.6l-9.8-16.9l9.8-16.9h19.5l9.8,16.9l-9.8,16.9H958.2z
						 M1018,1006.6l-9.8-16.9l9.8-16.9h19.5l9.8,16.9l-9.8,16.9H1018z M1077.8,1006.6l-9.8-16.9l9.8-16.9h19.5l9.8,16.9l-9.8,16.9
						H1077.8z M1137.6,1006.6l-9.8-16.9l9.8-16.9h19.5l9.8,16.9l-9.8,16.9H1137.6z M1197.4,1006.6l-9.8-16.9l9.8-16.9h19.5l9.8,16.9
						l-9.8,16.9H1197.4z M1257.2,1006.6l-9.8-16.9l9.9-16.9h19.5l9.8,16.9l-9.8,16.9H1257.2z M1306.7,989.3h-19.5l-9.8-16.9l9.8-17
						h19.5l9.8,16.9L1306.7,989.3z M1306.7,920.2h-19.4l-9.8-17l9.8-16.9h19.5l9.8,17L1306.7,920.2z M1306.7,885.7h-19.5l-9.8-16.9
						l9.8-17h19.5l9.8,16.9L1306.7,885.7z M1276.8,765.5l9.8,16.9l-9.8,16.9h-19.5l-9.8-16.9l9.8-16.9H1276.8z M1217,765.5l9.8,16.9
						l-9.8,16.9h-19.5l-9.8-16.9l9.8-16.9H1217z M1157.2,765.5l9.8,16.9l-9.8,16.9h-19.5l-9.8-16.9l9.8-16.9H1157.2z M1097.3,765.5
						l9.8,16.9l-9.8,16.9h-19.5l-9.8-16.9l9.8-16.9H1097.3z M1037.5,765.5l9.8,16.9l-9.8,16.9H1018l-9.8-16.9l9.8-16.9H1037.5z
						 M977.7,765.5l9.8,16.9l-9.8,16.9h-19.5l-9.8-16.9l9.8-16.9H977.7z M917.9,765.5l9.8,16.9l-9.8,16.9h-19.5l-9.8-16.9l9.8-16.9
						H917.9z M858.1,765.5l9.8,16.9l-9.8,16.9h-19.5l-9.8-16.9l9.8-16.9H858.1z M858.1,800.1l9.8,16.9l-9.8,16.9h-19.5l-9.8-16.9
						l9.8-16.9H858.1z M858.1,834.6l9.8,16.9l-9.8,16.9h-19.5l-9.8-16.9l9.8-16.9L858.1,834.6z M858.1,869.1l9.8,16.9l-9.8,16.9
						h-19.5l-9.8-16.9l9.8-16.9H858.1z M858.1,903.7l9.8,16.9l-9.7,16.9h-19.5l-9.8-16.9l9.8-16.9L858.1,903.7z M858.1,938.2
						l9.8,16.9l-9.8,16.9h-19.5l-9.8-16.9l9.8-16.9H858.1z M858.1,972.7l9.8,16.9l-9.8,16.9h-19.5l-9.8-16.9l9.8-16.9H858.1z
						 M858.1,1007.3l9.8,16.9l-9.8,16.9h-19.5l-9.8-16.9l9.8-16.9H858.1z M898.4,1075.6l-9.8-16.9l9.8-16.9h19.5l9.8,16.9l-9.8,16.9
						H898.4z M958.2,1075.6l-9.8-16.9l9.8-16.9h19.5l9.8,16.9l-9.8,16.9H958.2z M1018,1075.6l-9.8-16.9l9.8-16.9h19.5l9.8,16.9
						l-9.8,16.9L1018,1075.6z M1077.8,1075.6l-9.8-16.9l9.8-16.9h19.5l9.8,16.9l-9.8,16.9L1077.8,1075.6z M1137.7,1075.6l-9.8-16.9
						l9.8-16.9h19.5l9.8,16.9l-9.8,16.9H1137.7z M1197.5,1075.6l-9.7-16.9l9.8-16.9h19.5l9.8,16.9l-9.8,16.9L1197.5,1075.6z
						 M1257.3,1075.6l-9.8-16.9l9.8-16.9h19.5l9.8,16.9l-9.8,16.9L1257.3,1075.6z M1336.6,1041.1h-19.5l-9.8-16.9l9.8-16.9h19.5
						l9.8,16.9L1336.6,1041.1z M1317.1,1006.6l-9.7-16.9l9.8-16.9h19.5l9.8,16.9l-9.8,16.9H1317.1z M1317.1,972.1l-9.7-16.9
						l9.8-16.9h19.5l9.8,16.9l-9.8,16.9L1317.1,972.1z M1336.7,937.5h-19.5l-9.8-16.9l9.8-16.9h19.5l9.8,16.9L1336.7,937.5z
						 M1317.1,903l-9.8-16.9l9.8-16.9h19.5l9.8,16.9l-9.8,16.9L1317.1,903z M1317.1,868.5l-9.8-16.9l9.8-16.9h19.5l9.8,16.9
						l-9.8,16.9L1317.1,868.5z M1336.6,833.9h-19.5l-9.8-16.9l9.8-16.9h19.5l9.8,16.9L1336.6,833.9z M1317.1,799.4l-9.7-17l9.8-16.9
						h19.5l9.8,16.9l-9.8,16.9L1317.1,799.4z M1336.6,696.5l9.8,16.9l-9.8,16.9h-19.5l-9.8-17l9.8-16.9L1336.6,696.5z M1276.8,696.5
						l9.8,16.9l-9.8,16.9h-19.5l-9.8-16.9l9.8-16.9L1276.8,696.5z M1217,696.5l9.8,16.9l-9.8,16.9h-19.5l-9.8-16.9l9.8-16.9H1217z
						 M1157.2,696.5l9.8,16.9l-9.8,16.9h-19.5l-9.8-16.9l9.8-16.9H1157.2z M1097.3,696.5l9.8,16.9l-9.8,16.9h-19.5l-9.8-16.9
						l9.8-16.9L1097.3,696.5z M1037.5,696.5l9.8,16.9l-9.8,16.9H1018l-9.8-16.9l9.8-16.9L1037.5,696.5z M977.7,696.5l9.8,16.9
						l-9.8,16.9h-19.5l-9.8-16.9l9.8-16.9H977.7z M917.9,696.5l9.8,16.9l-9.8,16.9h-19.5l-9.8-16.9l9.8-16.9H917.9z M858.1,696.5
						l9.8,16.9l-9.8,16.9h-19.5l-9.8-16.9l9.8-16.9H858.1z M838.6,1110.2l-9.8-16.9l9.8-16.9h19.5l9.8,16.9l-9.8,16.9H838.6z
						 M898.4,1110.2l-9.8-16.9l9.7-16.9h19.5l9.8,16.9l-9.8,16.9H898.4z M958.2,1110.2l-9.8-16.9l9.8-16.9h19.5l9.8,16.9l-9.8,16.9
						H958.2z M1018,1110.2l-9.8-16.9l9.8-16.9h19.5l9.8,16.9l-9.8,16.9H1018z M1077.8,1110.2l-9.8-16.9l9.8-16.9h19.5l9.8,16.9
						l-9.8,16.9H1077.8z M1137.7,1110.2l-9.8-16.9l9.8-16.9h19.5l9.8,16.9l-9.8,16.9H1137.7z M1197.5,1110.2l-9.8-16.9l9.8-16.9
						h19.5l9.8,16.9l-9.8,16.9H1197.5z M1257.3,1110.2l-9.8-16.9l9.8-16.9h19.5l9.8,16.9l-9.8,16.9H1257.3z M1317.1,1110.2
						l-9.8-16.9l9.8-16.9h19.5l9.8,16.9l-9.8,16.9H1317.1z M1346.3,678.9l-9.8,16.9h-19.5l-9.7-16.9l9.8-16.9h19.5L1346.3,678.9z
						 M1286.5,678.9l-9.8,16.9h-19.4l-9.8-16.9l9.8-16.9h19.5L1286.5,678.9z M1226.7,678.9l-9.8,16.9h-19.5l-9.8-16.9l9.8-16.9h19.5
						L1226.7,678.9z M1166.9,678.9l-9.8,16.9h-19.5l-9.8-16.9l9.8-16.9h19.5L1166.9,678.9z M1107.1,678.9l-9.7,16.9h-19.5l-9.8-16.9
						l9.8-16.9h19.5L1107.1,678.9z M1047.3,678.9l-9.8,16.9H1018l-9.8-16.9l9.8-16.9h19.5L1047.3,678.9z M987.4,678.9l-9.8,16.9
						h-19.5l-9.8-16.9l9.8-16.9h19.5L987.4,678.9z M927.6,678.9l-9.8,16.9h-19.5l-9.8-16.9l9.8-16.9h19.5L927.6,678.9z M867.8,678.9
						l-9.8,16.9h-19.5l-9.8-16.9l9.8-16.9H858L867.8,678.9z M858.7,1145.1l9.8-16.9H888l9.8,16.9L888,1162h-19.5L858.7,1145.1z
						 M918.5,1145.1l9.8-16.9h19.5l9.8,16.9l-9.8,16.9h-19.5L918.5,1145.1z M978.3,1145.1l9.8-16.9h19.5l9.8,16.9l-9.8,16.9h-19.5
						L978.3,1145.1z M1038.2,1145.1l9.8-16.9h19.5l9.8,16.9l-9.8,16.9H1048L1038.2,1145.1z M1098,1145.1l9.8-16.9h19.6l9.8,16.9
						l-9.8,16.9h-19.6L1098,1145.1z M1157.8,1145.1l9.8-16.9h19.5l9.8,16.9l-9.8,16.9h-19.5L1157.8,1145.1z M1217.6,1145.1l9.8-16.9
						h19.5l9.8,16.9l-9.8,16.9h-19.5L1217.6,1145.1z M1277.4,1145.1l9.8-16.9h19.5l9.8,16.9l-9.8,16.9h-19.5L1277.4,1145.1z
						 M1396.4,764.8h-19.5l-9.8-16.9l9.8-16.9h19.5l9.8,16.9L1396.4,764.8z M1406.2,713.4l-9.8,16.9h-19.5l-9.8-16.9l9.8-16.9h19.5
						L1406.2,713.4z M1366.5,713H1347l-9.8-17l9.8-16.9h19.5l9.8,16.9L1366.5,713z M1346.9,644.7h19.5l9.8,16.9l-9.7,16.9H1347
						l-9.8-16.9L1346.9,644.7z M1287.1,644.7h19.6l9.8,16.9l-9.8,17h-19.5l-9.8-16.9L1287.1,644.7z M1227.3,644.7h19.5l9.8,16.9
						l-9.8,17h-19.5l-9.8-16.9L1227.3,644.7z M1167.5,644.7h19.5l9.8,16.9l-9.8,17h-19.4l-9.8-16.9L1167.5,644.7z M1107.7,644.7
						h19.7l9.7,16.9l-9.8,17h-19.5l-9.8-16.9L1107.7,644.7z M1047.9,644.7h19.5l9.8,16.9l-9.8,17h-19.5l-9.8-16.9L1047.9,644.7z
						 M988,644.7h19.5l9.8,16.9l-9.8,17h-19.4l-9.8-17L988,644.7z M928.2,644.7h19.6l9.8,16.9l-9.8,17h-19.5l-9.8-16.9L928.2,644.7z
						 M868.4,644.7h19.5l9.8,16.9l-9.8,17h-19.5l-9.8-16.9L868.4,644.7z M808.6,644.7h19.5l9.8,16.9l-9.8,17h-19.4l-9.8-16.9
						L808.6,644.7z M768.9,678.9l9.8-16.9h19.5l9.8,16.9l-9.8,16.9h-19.5L768.9,678.9z M808.6,679.2h19.5l9.8,17l-9.8,16.9h-19.5
						l-9.8-16.9L808.6,679.2z M808.6,713.7h19.5l9.8,16.9l-9.7,16.9h-19.5l-9.8-16.9L808.6,713.7z M808.6,748.3h19.5l9.8,16.9
						l-9.8,17h-19.4l-9.8-16.9L808.6,748.3z M768.9,782.5l9.8-16.9h19.5l9.8,16.9l-9.8,16.9h-19.5L768.9,782.5z M808.7,782.8h19.5
						l9.8,17l-9.8,16.9h-19.5l-9.8-16.9L808.7,782.8z M808.7,817.3h19.5l9.8,16.9l-9.8,16.9h-19.5l-9.8-16.9L808.7,817.3z
						 M808.7,851.9h19.5l9.8,16.9l-9.8,17h-19.5l-9.8-16.9L808.7,851.9z M768.9,886.1l9.8-16.9h19.5l9.8,16.9l-9.8,16.9h-19.5
						L768.9,886.1z M808.7,886.4h19.5l9.8,17l-9.8,16.9h-19.5l-9.8-16.9L808.7,886.4z M808.7,920.9h19.5l9.8,16.9l-9.8,16.9h-19.5
						l-9.8-16.9L808.7,920.9z M808.7,955.5h19.5l9.8,16.9l-9.8,17h-19.5l-9.8-16.9L808.7,955.5z M768.9,989.7l9.8-16.9h19.5
						l9.8,16.9l-9.8,16.9h-19.5L768.9,989.7z M808.7,990h19.5l9.8,17l-9.8,16.9h-19.5l-9.8-16.9L808.7,990z M808.7,1024.5h19.5
						l9.8,16.9l-9.8,16.9h-19.5l-9.8-16.9L808.7,1024.5z M808.7,1059.1h19.5l9.8,16.9l-9.8,16.9h-19.5l-9.8-16.9L808.7,1059.1z
						 M768.9,1093.3l9.8-16.9h19.5l9.8,16.9l-9.8,16.9h-19.5L768.9,1093.3z M808.7,1093.6h19.5l9.8,16.9l-9.8,16.9h-19.5l-9.8-16.9
						L808.7,1093.6z M798.9,1145.1l9.8-16.9h19.5l9.8,16.9l-9.8,16.9h-19.5L798.9,1145.1z M858.1,1179.3h-19.5l-9.8-16.9l9.8-16.9
						h19.5l9.8,17L858.1,1179.3z M918,1179.3h-19.5l-9.8-16.9l9.8-16.9h19.5l9.8,17L918,1179.3z M977.8,1179.3h-19.5l-9.8-16.9
						l9.8-16.9h19.5l9.8,17L977.8,1179.3z M1037.6,1179.3H1018l-9.8-16.9l9.8-16.9h19.5l9.8,17L1037.6,1179.3z M1097.4,1179.3h-19.5
						l-9.8-16.9l9.8-16.9h19.5l9.8,17L1097.4,1179.3z M1157.2,1179.3h-19.5l-9.8-16.9l9.8-16.9h19.5l9.8,17L1157.2,1179.3z
						 M1217.1,1179.3h-19.5l-9.8-16.9l9.8-16.9h19.5l9.8,17L1217.1,1179.3z M1276.9,1179.3h-19.5l-9.8-16.9l9.8-16.9h19.5l9.8,17
						L1276.9,1179.3z M1336.7,1179.3h-19.5l-9.8-16.9l9.8-16.9h19.5l9.8,17L1336.7,1179.3z M1396.5,1179.3H1377l-9.8-16.9l9.8-16.9
						h19.5l9.8,16.9L1396.5,1179.3z M1406.3,1127.8l-9.8,16.9H1377l-9.8-16.9l9.8-16.9h19.5L1406.3,1127.8z M1366.6,1127.5h-19.5
						l-9.8-17l9.8-16.9h19.5l9.8,17L1366.6,1127.5z M1366.6,1092.9H1347l-9.8-16.9l9.8-17h19.5l9.8,16.9L1366.6,1092.9z
						 M1396.5,1075.6H1377l-9.8-16.9l9.8-16.9h19.5l9.8,16.9L1396.5,1075.6z M1406.3,1024.2l-9.8,16.9H1377l-9.8-16.9l9.8-16.9h19.5
						L1406.3,1024.2z M1366.6,1023.8h-19.5l-9.8-17l9.8-16.9h19.5l9.8,17L1366.6,1023.8z M1366.6,989.3H1347l-9.8-16.9l9.8-17h19.5
						l9.8,16.9L1366.6,989.3z M1396.5,972H1377l-9.8-16.9l9.8-16.9h19.5l9.8,16.9L1396.5,972z M1406.3,920.6l-9.8,16.9H1377
						l-9.8-16.9l9.8-16.9h19.5L1406.3,920.6z M1366.6,920.2h-19.5l-9.8-17l9.8-16.9h19.5l9.8,16.9L1366.6,920.2z M1366.6,885.7H1347
						l-9.8-16.9l9.8-17h19.5l9.8,16.9L1366.6,885.7z M1396.5,868.4H1377l-9.8-16.9l9.8-16.9h19.5l9.8,16.9L1396.5,868.4z
						 M1406.3,817l-9.8,16.9H1377l-9.8-16.9l9.8-16.9h19.5L1406.3,817z M1366.6,816.6h-19.5l-9.8-17l9.8-16.9h19.5l9.8,16.9
						L1366.6,816.6z"/>
					
						<radialGradient id="Path_4_00000089573926225808438790000014072725401046291595_" cx="641.3568" cy="1037.7068" r="0.499" gradientTransform="matrix(540.8 0 0 -453.63 -345475.1562 471231.9688)" gradientUnits="userSpaceOnUse">
						<stop  offset="0" style="stop-color:#FFFFFF"/>
						<stop  offset="0.25" style="stop-color:#B9B9B9;stop-opacity:0.729"/>
						<stop  offset="0.62" style="stop-color:#575757;stop-opacity:0.341"/>
						<stop  offset="0.88" style="stop-color:#181818;stop-opacity:9.000000e-02"/>
						<stop  offset="1" style="stop-color:#000000;stop-opacity:0"/>
					</radialGradient>
					
						<path id="Path_4" style="opacity:0.25;fill:url(#Path_4_00000089573926225808438790000014072725401046291595_);enable-background:new    ;" d="
						M1579.8,335.5h16.9l8.6-14.9l-8.4-14.6l8.4-14.7l-8.6-14.9h-16.9l-8.3-14.3l8.4-14.6l-8.6-14.9h-17.2l-8.4,14.6h-16.5
						l-8.4-14.6h-17.2l-8.4,14.6h-16.5l-8.4-14.6h-17.2l-8.4,14.6H1428l-8.4-14.6h-17.2l-8.4,14.6h-16.6l-8.4-14.6h-17.2l-8.5,14.6
						h-16.5l-8.4-14.6H1301l-8.4,14.6h-16.5l-8.4-14.6h-17.2l-8.4,14.6h-16.5l-8.4-14.6h-17.2l-8.5,14.6h-16.5l-8.5-14.6h-17.2
						l-8.4,14.6h-16.5l-8.4-14.6h-17.2l-8.4,14.6h-16.9l-8.6,14.9l8.6,14.9h16.9l8.2,14.3l-8.4,14.6l8.4,14.6l-8.3,14.3h-16.9
						l-8.6,14.9l8.6,14.9h16.9l8.3,14.3l-8.4,14.6l8.4,14.6l-8.3,14.3h-16.9l-8.6,14.9l8.6,14.9h16.9l8.2,14.3l-8.4,14.6l8.4,14.6
						l-8.3,14.3h-16.9l-8.6,14.9l8.6,14.9h16.9l8.3,14.3l-8.4,14.6l8.4,14.6l-8.3,14.3h-16.9l-8.6,14.9l8.6,14.9h16.9l8.3,14.3
						l-8.4,14.6l8.6,14.9h16.9l8.4,14.6h17.2l8.4-14.6h16.5l8.4,14.6h17.2l8.4-14.6h16.5l8.4,14.6h17.2l8.4-14.6h16.6l8.4,14.6h17.2
						l8.4-14.6h16.5l8.4,14.6h17.2l8.4-14.6h16.5l8.4,14.6h17.2l8.4-14.6h16.5l8.4,14.6h17.2l8.4-14.6h16.5l8.4,14.6h17.2l8.4-14.6
						h16.5l8.4,14.6h17.2l8.4-14.6h16.5l8.4,14.6h17.2l8.6-14.9l-8.4-14.6l8.4-14.6l-8.6-14.9h-16.9l-8.3-14.3l8.3-14.3h16.9
						l8.6-14.9l-8.4-14.6l8.4-14.6l-8.6-14.9h-16.9l-8.3-14.3l8.3-14.3h16.9l8.6-14.9l-8.4-14.6l8.4-14.6l-8.6-14.9h-16.9l-8.3-14.3
						l8.3-14.3h16.9l8.6-14.9l-8.4-14.6l8.4-14.6l-8.6-14.9h-16.9l-8.3-14.3L1579.8,335.5z M1571,349.5h-16.5l-8.2-14.3l8.3-14.4
						h16.5l8.3,14.3L1571,349.5z M1571,379.3l8.3,14.3L1571,408h-16.5l-8.3-14.3l8.3-14.3H1571z M1571,467l8.3,14.3l-8.3,14.3h-16.5
						l-8.3-14.3l8.3-14.3H1571z M1571,554.7l8.3,14.3l-8.3,14.3h-16.5l-8.3-14.3l8.3-14.3H1571z M1571,642.4l8.3,14.3L1571,671
						h-16.5l-8.3-14.3l8.3-14.3H1571z M1529.2,656.4l-8.3-14.3l8.3-14.3h16.5l8.3,14.3l-8.3,14.3H1529.2z M1478.6,656.4l-8.3-14.3
						l8.3-14.3h16.5l8.3,14.3l-8.3,14.3L1478.6,656.4z M1428,656.4l-8.3-14.3l8.3-14.3h16.5l8.3,14.3l-8.3,14.3H1428z M1377.3,656.4
						l-8.3-14.3l8.3-14.3h16.5l8.3,14.3l-8.3,14.3H1377.3z M1326.7,656.4l-8.3-14.3l8.3-14.3h16.5l8.3,14.3l-8.3,14.3H1326.7z
						 M1276.1,656.4l-8.3-14.3l8.3-14.3h16.5l8.3,14.3l-8.3,14.3H1276.1z M1225.5,656.4l-8.3-14.3l8.3-14.3h16.5l8.3,14.3l-8.3,14.3
						H1225.5z M1174.8,656.4l-8.3-14.3l8.3-14.3h16.5l8.3,14.3l-8.3,14.4L1174.8,656.4z M1124.2,656.4l-8.3-14.3l8.3-14.3h16.5
						l8.3,14.3l-8.3,14.3H1124.2z M1166,262.4l8.3,14.4l-8.2,14.3h-16.6l-8.3-14.4l8.2-14.3L1166,262.4z M1216.6,262.4l8.3,14.4
						l-8.2,14.3h-16.5l-8.3-14.4l8.3-14.3H1216.6z M1267.3,262.4l8.3,14.4l-8.2,14.3h-16.6l-8.3-14.4l8.2-14.3L1267.3,262.4z
						 M1317.9,262.4l8.3,14.4l-8.2,14.3h-16.5l-8.3-14.4l8.2-14.3L1317.9,262.4z M1368.5,262.4l8.3,14.4l-8.2,14.3H1352l-8.3-14.4
						l8.3-14.3H1368.5z M1419.1,262.4l8.3,14.4l-8.3,14.3h-16.5l-8.3-14.3l8.2-14.3L1419.1,262.4z M1469.8,262.4l8.3,14.4l-8.2,14.3
						h-16.5l-8.3-14.4l8.3-14.3H1469.8z M1520.4,262.4l8.3,14.4l-8.3,14.3h-16.5l-8.3-14.4l8.3-14.3H1520.4z M1571,291.6l8.3,14.4
						l-8.3,14.3h-16.5l-8.3-14.3l8.3-14.3L1571,291.6z M1503.9,641.8l-8.3-14.4l8.3-14.3h16.5l8.3,14.4l-8.3,14.3H1503.9z
						 M1453.3,641.8l-8.3-14.4l8.3-14.3h16.5l8.3,14.4l-8.2,14.3H1453.3z M1402.7,641.8l-8.3-14.3l8.2-14.3h16.5l8.3,14.4l-8.3,14.3
						L1402.7,641.8z M1352,641.8l-8.3-14.4l8.3-14.3h16.5l8.3,14.4l-8.2,14.3H1352z M1301.4,641.8l-8.3-14.4l8.3-14.3h16.5l8.3,14.4
						l-8.2,14.3L1301.4,641.8z M1250.8,641.8l-8.3-14.4l8.2-14.3h16.5l8.3,14.4l-8.2,14.3L1250.8,641.8z M1200.2,641.8l-8.3-14.4
						l8.3-14.3h16.5l8.3,14.4l-8.2,14.3L1200.2,641.8z M1149.5,641.8l-8.3-14.4l8.2-14.3h16.5l8.3,14.4l-8.2,14.3L1149.5,641.8z
						 M1166,291.6l8.3,14.3l-8.3,14.3h-16.5l-8.3-14.3l8.3-14.3L1166,291.6z M1216.7,291.6l8.3,14.3l-8.3,14.3h-16.5l-8.3-14.3
						l8.3-14.3H1216.7z M1267.3,291.6l8.3,14.3l-8.2,14.3h-16.6l-8.3-14.3l8.3-14.3H1267.3z M1317.9,291.6l8.3,14.3l-8.3,14.3h-16.5
						l-8.3-14.3l8.3-14.3H1317.9z M1368.5,291.6l8.3,14.3l-8.3,14.3H1352l-8.3-14.3l8.3-14.3H1368.5z M1419.2,291.6l8.3,14.3
						l-8.3,14.3h-16.5l-8.3-14.3l8.3-14.3H1419.2z M1469.8,291.6l8.3,14.3l-8.3,14.3h-16.5l-8.3-14.3l8.3-14.3H1469.8z
						 M1520.4,291.6l8.3,14.3l-8.3,14.3h-16.5l-8.3-14.3l8.3-14.3H1520.4z M1529.2,598l-8.3-14.3l8.3-14.3h16.5l8.3,14.3l-8.3,14.3
						H1529.2z M1503.9,612.5l-8.3-14.3l8.3-14.3h16.5l8.3,14.3l-8.3,14.3H1503.9z M1453.3,612.5l-8.3-14.3l8.3-14.3h16.5l8.2,14.3
						l-8.3,14.3H1453.3z M1402.6,612.5l-8.2-14.3l8.3-14.3h16.5l8.3,14.3l-8.3,14.3H1402.6z M1352,612.5l-8.3-14.3l8.3-14.3h16.5
						l8.2,14.3l-8.3,14.3H1352z M1301.3,612.5l-8.3-14.3l8.3-14.3h16.5l8.2,14.3l-8.2,14.3H1301.3z M1250.7,612.5l-8.2-14.3
						l8.3-14.3h16.6l8.3,14.3l-8.3,14.3H1250.7z M1200.1,612.5l-8.3-14.3l8.3-14.3h16.5l8.2,14.3l-8.2,14.3H1200.1z M1149.5,612.5
						l-8.2-14.3l8.3-14.3h16.6l8.3,14.3l-8.3,14.3H1149.5z M1124.2,597.9l-8.3-14.3l8.3-14.3h16.5l8.3,14.3l-8.3,14.3H1124.2z
						 M1140.7,306.2l8.3,14.3l-8.3,14.3h-16.5l-8.3-14.3l8.3-14.3H1140.7z M1166,320.9l8.3,14.3l-8.3,14.4h-16.5l-8.2-14.3l8.3-14.4
						L1166,320.9z M1191.3,306.3l8.3,14.3l-8.3,14.3h-16.5l-8.3-14.3l8.3-14.3H1191.3z M1216.7,320.9l8.2,14.3l-8.3,14.4h-16.5
						l-8.3-14.3l8.3-14.4L1216.7,320.9z M1242,306.3l8.3,14.3l-8.3,14.3h-16.5l-8.3-14.3l8.3-14.3H1242z M1267.3,320.9l8.3,14.3
						l-8.3,14.4h-16.5l-8.2-14.3l8.3-14.4L1267.3,320.9z M1292.7,306.3l8.3,14.3l-8.3,14.3h-16.6l-8.3-14.3l8.3-14.3H1292.7z
						 M1318,320.9l8.2,14.3l-8.3,14.4h-16.6l-8.3-14.3l8.3-14.4L1318,320.9z M1343.3,306.3l8.3,14.3l-8.3,14.3h-16.6l-8.3-14.3
						l8.3-14.3H1343.3z M1368.6,320.9l8.2,14.3l-8.3,14.4H1352l-8.3-14.3l8.3-14.4L1368.6,320.9z M1393.9,306.3l8.3,14.3l-8.3,14.3
						h-16.6l-8.3-14.3l8.3-14.3H1393.9z M1419.2,320.9l8.3,14.3l-8.3,14.4h-16.5l-8.3-14.3l8.3-14.4H1419.2z M1444.5,306.3l8.3,14.3
						l-8.3,14.3H1428l-8.3-14.3l8.3-14.3H1444.5z M1469.9,320.9l8.2,14.3l-8.3,14.4h-16.5l-8.3-14.3l8.3-14.4H1469.9z M1495.2,306.3
						l8.2,14.3l-8.3,14.3h-16.5l-8.2-14.3l8.3-14.3H1495.2z M1520.5,320.9l8.3,14.3l-8.3,14.4h-16.5l-8.3-14.3l8.3-14.4
						L1520.5,320.9z M1545.8,306.3l8.3,14.3l-8.3,14.3h-16.5l-8.3-14.3l8.3-14.3H1545.8z M1504,583.4l-8.3-14.3l8.3-14.3h16.5
						l8.3,14.3l-8.3,14.3H1504z M1478.7,568.7l-8.3-14.3l8.3-14.3h16.5l8.3,14.3l-8.3,14.3H1478.7z M1453.3,583.4l-8.3-14.3
						l8.3-14.3h16.5l8.3,14.3l-8.3,14.3H1453.3z M1428,568.7l-8.3-14.3l8.3-14.3h16.5l8.3,14.3l-8.3,14.3H1428z M1402.7,583.4
						l-8.3-14.3l8.3-14.3h16.5l8.3,14.3l-8.3,14.3H1402.7z M1377.3,568.7l-8.3-14.3l8.3-14.3h16.5l8.3,14.3l-8.3,14.3H1377.3z
						 M1352,583.4l-8.3-14.3l8.3-14.3h16.5l8.3,14.3l-8.3,14.3H1352z M1326.7,568.7l-8.3-14.3l8.3-14.3h16.5l8.3,14.3l-8.3,14.3
						H1326.7z M1301.4,583.4l-8.3-14.3l8.3-14.3h16.5l8.3,14.3l-8.3,14.3H1301.4z M1276.1,568.7l-8.3-14.3l8.3-14.3h16.5l8.3,14.3
						l-8.3,14.3H1276.1z M1250.8,583.4l-8.3-14.3l8.3-14.3h16.6l8.3,14.3l-8.3,14.3H1250.8z M1225.5,568.7l-8.3-14.3l8.3-14.3h16.5
						l8.3,14.3l-8.3,14.3H1225.5z M1200.2,583.4l-8.3-14.3l8.3-14.3h16.5l8.3,14.3l-8.3,14.3H1200.2z M1174.8,568.7l-8.3-14.3
						l8.3-14.3h16.5l8.3,14.3l-8.3,14.3H1174.8z M1149.5,583.4l-8.3-14.3l8.3-14.3h16.5l8.3,14.3l-8.3,14.3H1149.5z M1166,350.1
						l8.3,14.4l-8.2,14.3h-16.6l-8.3-14.4l8.2-14.3H1166z M1216.6,350.1l8.3,14.4l-8.2,14.3h-16.5l-8.3-14.4l8.3-14.3H1216.6z
						 M1267.3,350.1l8.3,14.4l-8.2,14.3h-16.6l-8.3-14.4l8.2-14.3H1267.3z M1317.9,350.1l8.3,14.4l-8.2,14.3h-16.5l-8.3-14.4
						l8.2-14.3H1317.9z M1368.5,350.1l8.3,14.4l-8.2,14.3H1352l-8.3-14.4l8.3-14.3H1368.5z M1419.1,350.1l8.3,14.4l-8.3,14.3h-16.5
						l-8.3-14.4l8.2-14.3H1419.1z M1469.8,350.1l8.3,14.4l-8.2,14.3h-16.5l-8.3-14.4l8.3-14.3H1469.8z M1520.4,350.1l8.3,14.4
						l-8.3,14.3h-16.5l-8.3-14.4l8.3-14.3H1520.4z M1520.4,554.1h-16.5l-8.3-14.4l8.3-14.3h16.5l8.3,14.4L1520.4,554.1z
						 M1453.3,554.1l-8.3-14.4l8.3-14.3h16.5l8.3,14.4l-8.2,14.3H1453.3z M1402.6,554.1l-8.3-14.3l8.2-14.3h16.5l8.3,14.3l-8.3,14.3
						L1402.6,554.1z M1352,554.1l-8.3-14.4l8.3-14.3h16.5l8.3,14.4l-8.2,14.3H1352z M1301.4,554.1l-8.3-14.4l8.3-14.3h16.5l8.3,14.4
						l-8.2,14.3H1301.4z M1250.7,554.1l-8.3-14.4l8.2-14.3h16.5l8.3,14.4l-8.2,14.3L1250.7,554.1z M1200.1,554.1l-8.3-14.4l8.3-14.3
						h16.5l8.3,14.4l-8.2,14.3H1200.1z M1149.5,554.1l-8.3-14.4l8.2-14.3h16.5l8.4,14.4l-8.2,14.3L1149.5,554.1z M1166,379.3
						l8.3,14.3l-8.3,14.3h-16.5l-8.3-14.3l8.3-14.3L1166,379.3z M1216.7,379.3l8.3,14.3l-8.3,14.3h-16.5l-8.3-14.3l8.3-14.3
						L1216.7,379.3z M1267.3,379.3l8.3,14.3l-8.2,14.3h-16.6l-8.3-14.3l8.3-14.3L1267.3,379.3z M1317.9,379.3l8.3,14.3l-8.3,14.3
						h-16.5l-8.3-14.3l8.3-14.3L1317.9,379.3z M1368.5,379.3l8.3,14.3l-8.3,14.3H1352l-8.3-14.3l8.3-14.3L1368.5,379.3z
						 M1419.2,379.3l8.3,14.3l-8.3,14.3h-16.5l-8.3-14.3l8.3-14.3L1419.2,379.3z M1469.8,379.3l8.3,14.3l-8.3,14.3h-16.5l-8.3-14.3
						l8.3-14.3H1469.8z M1520.4,379.3l8.3,14.3l-8.3,14.3h-16.5l-8.3-14.3l8.3-14.3L1520.4,379.3z M1520.4,467l8.3,14.3l-8.3,14.3
						h-16.5l-8.3-14.3l8.3-14.3H1520.4z M1453.3,524.9l-8.3-14.3l8.3-14.4h16.5l8.2,14.3l-8.3,14.4H1453.3z M1402.6,524.9l-8.2-14.3
						l8.3-14.4h16.5l8.3,14.3l-8.3,14.4H1402.6z M1352,524.9l-8.3-14.3l8.3-14.4h16.5l8.2,14.3l-8.3,14.4H1352z M1301.4,524.9
						l-8.3-14.3l8.3-14.4h16.5l8.2,14.3l-8.3,14.4H1301.4z M1250.7,524.9l-8.2-14.3l8.3-14.4h16.6l8.3,14.3l-8.3,14.4H1250.7z
						 M1200.1,524.9l-8.3-14.3l8.3-14.4h16.5l8.2,14.3l-8.3,14.4H1200.1z M1149.5,495.7l-8.3-14.3l8.3-14.3h16.5l8.3,14.3l-8.3,14.3
						H1149.5z M1191.3,393.9l8.3,14.3l-8.3,14.3h-16.5l-8.3-14.3l8.3-14.3H1191.3z M1216.7,408.5l8.2,14.3l-8.3,14.4h-16.5
						l-8.3-14.3l8.3-14.3H1216.7z M1242,393.9l8.3,14.3l-8.3,14.3h-16.5l-8.3-14.3l8.3-14.3H1242z M1267.3,408.5l8.3,14.3l-8.3,14.4
						h-16.6l-8.2-14.3l8.3-14.3H1267.3z M1292.7,393.9l8.3,14.3l-8.3,14.3h-16.6l-8.3-14.3l8.3-14.3H1292.7z M1317.9,408.5l8.2,14.3
						l-8.3,14.4h-16.6l-8.3-14.3l8.3-14.3H1317.9z M1343.2,393.9l8.3,14.3l-8.3,14.3h-16.5l-8.3-14.3l8.3-14.3H1343.2z
						 M1368.5,408.5l8.2,14.3l-8.3,14.4H1352l-8.3-14.3l8.3-14.3H1368.5z M1393.9,393.9l8.3,14.3l-8.3,14.3h-16.5l-8.3-14.3
						l8.3-14.3H1393.9z M1419.2,408.5l8.3,14.3l-8.3,14.4h-16.5l-8.2-14.3l8.3-14.3H1419.2z M1444.5,393.9l8.3,14.3l-8.3,14.3H1428
						l-8.3-14.3l8.3-14.3H1444.5z M1469.8,408.5l8.2,14.3l-8.3,14.4h-16.5l-8.3-14.3l8.3-14.3H1469.8z M1495.1,393.9l8.3,14.3
						l-8.3,14.3h-16.5l-8.3-14.3l8.3-14.3L1495.1,393.9z M1478.6,481l-8.3-14.3l8.3-14.3h16.5l8.3,14.3l-8.3,14.3L1478.6,481z
						 M1453.3,495.7l-8.3-14.3l8.3-14.3h16.5l8.3,14.3l-8.3,14.3H1453.3z M1428,481.1l-8.3-14.3l8.3-14.3h16.5l8.3,14.3l-8.3,14.3
						H1428z M1402.7,495.7l-8.3-14.3l8.3-14.3h16.5l8.3,14.3l-8.3,14.3H1402.7z M1377.3,481.1l-8.3-14.3l8.3-14.3h16.5l8.3,14.3
						l-8.3,14.3H1377.3z M1352,495.7l-8.3-14.3l8.3-14.3h16.5l8.3,14.3l-8.3,14.3H1352z M1326.7,481.1l-8.3-14.3l8.3-14.3h16.5
						l8.3,14.3l-8.3,14.3H1326.7z M1301.4,495.7l-8.3-14.3l8.3-14.3h16.5l8.3,14.3l-8.3,14.3H1301.4z M1276.1,481.1l-8.3-14.3
						l8.3-14.3h16.5l8.3,14.3l-8.3,14.3H1276.1z M1250.8,495.7l-8.3-14.3l8.3-14.3h16.6l8.3,14.3l-8.3,14.3H1250.8z M1225.5,481.1
						l-8.3-14.3l8.3-14.3h16.5l8.3,14.3l-8.3,14.3H1225.5z M1200.2,495.7l-8.3-14.3l8.3-14.3h16.5l8.3,14.3l-8.3,14.3H1200.2z
						 M1174.8,481.1l-8.3-14.3l8.3-14.3h16.5l8.3,14.3l-8.3,14.3H1174.8z M1216.6,437.8l8.3,14.4l-8.2,14.3h-16.5l-8.3-14.4
						l8.3-14.3H1216.6z M1267.3,437.8l8.3,14.4l-8.2,14.3h-16.6l-8.3-14.4l8.2-14.3H1267.3z M1317.9,437.8l8.3,14.4l-8.2,14.3h-16.5
						l-8.3-14.4l8.3-14.3H1317.9z M1368.5,437.8l8.3,14.4l-8.2,14.3H1352l-8.3-14.4l8.3-14.3H1368.5z M1419.1,437.8l8.3,14.4
						l-8.3,14.3h-16.5l-8.3-14.4l8.2-14.3H1419.1z M1469.8,437.8l8.3,14.4l-8.2,14.3h-16.5l-8.3-14.4l8.3-14.3H1469.8z
						 M1495.1,423.2l8.3,14.4l-8.3,14.3h-16.5l-8.2-14.3l8.3-14.3L1495.1,423.2z M1444.4,423.2l8.3,14.3l-8.3,14.3h-16.5l-8.3-14.3
						l8.3-14.3L1444.4,423.2z M1393.8,423.2l8.3,14.3l-8.3,14.3h-16.5l-8.3-14.3l8.3-14.3L1393.8,423.2z M1343.2,423.2l8.3,14.3
						l-8.3,14.3h-16.5l-8.3-14.3l8.3-14.3L1343.2,423.2z M1292.6,423.2l8.3,14.4l-8.3,14.3h-16.5l-8.3-14.3l8.3-14.3L1292.6,423.2z
						 M1241.9,423.2l8.3,14.4l-8.3,14.3h-16.5l-8.3-14.3l8.3-14.3L1241.9,423.2z M1191.3,423.2l8.3,14.4l-8.2,14.3h-16.5l-8.3-14.3
						l8.3-14.3L1191.3,423.2z M1174.8,510.3l-8.3-14.3l8.3-14.3h16.5l8.3,14.3l-8.3,14.3L1174.8,510.3z M1225.5,510.3l-8.3-14.3
						l8.3-14.3h16.5l8.3,14.3l-8.3,14.3H1225.5z M1276.1,510.3l-8.3-14.3l8.3-14.3h16.5l8.3,14.3l-8.3,14.3H1276.1z M1326.7,510.3
						l-8.3-14.3l8.3-14.3h16.5l8.3,14.3l-8.3,14.3H1326.7z M1377.3,510.3l-8.3-14.3l8.3-14.3h16.5l8.3,14.3l-8.3,14.3L1377.3,510.3z
						 M1428,510.3l-8.3-14.3l8.3-14.3h16.5l8.3,14.3l-8.3,14.3H1428z M1478.6,510.3l-8.3-14.3l8.3-14.3h16.5l8.3,14.3l-8.3,14.3
						L1478.6,510.3z M1495.1,364.7l8.3,14.3l-8.3,14.3h-16.5l-8.3-14.3l8.3-14.3H1495.1z M1444.5,364.7l8.3,14.3l-8.3,14.3H1428
						l-8.3-14.3l8.3-14.3H1444.5z M1393.9,364.7l8.3,14.3l-8.3,14.3h-16.5l-8.3-14.3l8.3-14.3H1393.9z M1343.2,364.7l8.3,14.3
						l-8.3,14.3h-16.5l-8.3-14.3l8.3-14.3H1343.2z M1292.6,364.7l8.3,14.3l-8.3,14.3h-16.5l-8.3-14.3l8.3-14.3H1292.6z M1242,364.7
						l8.3,14.3l-8.3,14.3h-16.5l-8.3-14.3l8.3-14.3H1242z M1191.3,364.7l8.3,14.3l-8.3,14.3h-16.5l-8.3-14.3l8.3-14.3H1191.3z
						 M1149.5,408.5h16.5l8.3,14.3l-8.3,14.4h-16.6l-8.2-14.3L1149.5,408.5z M1149.5,437.8h16.5l8.3,14.4l-8.2,14.3h-16.6l-8.3-14.4
						L1149.5,437.8z M1149.5,496.2h16.5l8.3,14.3l-8.3,14.4h-16.6l-8.2-14.3L1149.5,496.2z M1174.8,539.5l-8.3-14.3l8.3-14.3h16.5
						l8.3,14.3l-8.3,14.3H1174.8z M1225.4,539.5l-8.3-14.3l8.3-14.3h16.5l8.3,14.3l-8.3,14.3H1225.4z M1276.1,539.5l-8.3-14.3
						l8.3-14.3h16.5l8.3,14.3l-8.3,14.3H1276.1z M1326.7,539.5l-8.3-14.3l8.3-14.3h16.5l8.3,14.3l-8.3,14.3H1326.7z M1377.3,539.5
						l-8.3-14.3l8.3-14.3h16.5l8.3,14.3l-8.3,14.3H1377.3z M1427.9,539.5l-8.3-14.3l8.3-14.3h16.5l8.3,14.3l-8.3,14.3H1427.9z
						 M1478.6,539.5l-8.2-14.4l8.3-14.3h16.5l8.3,14.3l-8.3,14.4H1478.6z M1520.4,524.9h-16.5l-8.3-14.3l8.3-14.4h16.5l8.3,14.3
						L1520.4,524.9z M1520.4,466.5h-16.5l-8.3-14.4l8.3-14.3h16.5l8.3,14.4L1520.4,466.5z M1520.4,437.2h-16.5l-8.3-14.3l8.3-14.3
						h16.5l8.3,14.3L1520.4,437.2z M1495.1,335.5l8.3,14.3l-8.3,14.3h-16.5l-8.2-14.3l8.2-14.3H1495.1z M1444.4,335.5l8.3,14.3
						l-8.3,14.3h-16.5l-8.3-14.3l8.3-14.3H1444.4z M1393.8,335.5l8.3,14.3l-8.3,14.3h-16.5l-8.3-14.3l8.3-14.3H1393.8z
						 M1343.2,335.5l8.3,14.3l-8.3,14.3h-16.5l-8.3-14.3l8.3-14.3H1343.2z M1292.6,335.5l8.3,14.3l-8.3,14.3h-16.5l-8.3-14.3
						l8.3-14.3H1292.6z M1241.9,335.5l8.3,14.3l-8.3,14.3h-16.5l-8.3-14.3l8.3-14.3H1241.9z M1191.3,335.5l8.3,14.3l-8.3,14.3h-16.5
						l-8.3-14.3l8.3-14.3H1191.3z M1140.7,335.5l8.3,14.3l-8.3,14.3h-16.5l-8.3-14.3l8.3-14.3H1140.7z M1140.7,364.8l8.3,14.3
						l-8.3,14.3h-16.5l-8.3-14.3l8.3-14.3H1140.7z M1140.7,394l8.3,14.3l-8.3,14.3h-16.5l-8.3-14.3l8.3-14.3H1140.7z M1140.7,423.2
						l8.2,14.3l-8.3,14.3h-16.5l-8.3-14.3l8.3-14.3L1140.7,423.2z M1140.7,452.4l8.3,14.3l-8.3,14.3h-16.5l-8.3-14.3l8.3-14.3
						H1140.7z M1140.7,481.7l8.3,14.3l-8.3,14.3h-16.5l-8.3-14.3l8.3-14.3L1140.7,481.7z M1140.7,510.9l8.3,14.3l-8.3,14.3h-16.5
						l-8.3-14.3l8.3-14.3L1140.7,510.9z M1140.7,540.1l8.3,14.3l-8.3,14.3h-16.5l-8.3-14.3l8.3-14.3H1140.7z M1174.8,598l-8.3-14.3
						l8.3-14.3h16.5l8.3,14.3l-8.3,14.3L1174.8,598z M1225.5,598l-8.3-14.3l8.3-14.3h16.5l8.3,14.3L1242,598H1225.5z M1276.1,598
						l-8.3-14.3l8.3-14.3h16.5l8.3,14.3l-8.3,14.3H1276.1z M1326.7,598l-8.3-14.3l8.3-14.3h16.5l8.3,14.3l-8.3,14.3H1326.7z
						 M1377.3,598l-8.3-14.3l8.3-14.3h16.5l8.3,14.3l-8.3,14.3H1377.3z M1428,598l-8.3-14.3l8.3-14.3h16.5l8.3,14.3l-8.3,14.3H1428z
						 M1478.6,598l-8.2-14.4l8.3-14.3h16.5l8.3,14.3l-8.3,14.3L1478.6,598z M1545.7,568.8h-16.5l-8.3-14.3l8.3-14.3h16.5l8.3,14.3
						L1545.7,568.8z M1529.2,539.5l-8.3-14.3l8.3-14.3h16.5l8.3,14.3l-8.3,14.3H1529.2z M1529.2,510.3l-8.3-14.3l8.3-14.3h16.5
						l8.3,14.3l-8.3,14.3H1529.2z M1545.7,481.1h-16.5l-8.3-14.3l8.3-14.3h16.5l8.3,14.3L1545.7,481.1z M1529.2,451.9l-8.2-14.3
						l8.3-14.3h16.5l8.3,14.3l-8.3,14.3L1529.2,451.9z M1529.2,422.6l-8.3-14.3l8.3-14.3h16.5l8.3,14.3l-8.3,14.3H1529.2z
						 M1545.7,393.4h-16.5l-8.3-14.3l8.3-14.3h16.5l8.3,14.3L1545.7,393.4z M1529.1,364.2l-8.3-14.3l8.3-14.3h16.5l8.3,14.3
						l-8.3,14.3L1529.1,364.2z M1545.7,277.1l8.3,14.3l-8.3,14.3h-16.5l-8.3-14.3l8.3-14.3H1545.7z M1495,277.1l8.3,14.3l-8.3,14.3
						h-16.5l-8.2-14.3l8.3-14.3L1495,277.1z M1444.4,277.1l8.3,14.3l-8.3,14.3h-16.5l-8.3-14.3l8.3-14.3H1444.4z M1393.8,277.1
						l8.3,14.3l-8.3,14.3h-16.5l-8.3-14.3l8.3-14.4L1393.8,277.1z M1343.2,277.1l8.3,14.3l-8.3,14.3h-16.4l-8.3-14.3l8.3-14.3
						H1343.2z M1292.5,277.1l8.3,14.3l-8.3,14.3h-16.4l-8.3-14.3l8.3-14.3H1292.5z M1241.9,277.1l8.3,14.3l-8.3,14.3h-16.4
						l-8.3-14.3l8.3-14.3H1241.9z M1191.3,277l8.3,14.3l-8.3,14.3h-16.5l-8.3-14.3l8.3-14.3H1191.3z M1140.7,277l8.3,14.3l-8.3,14.3
						h-16.5l-8.3-14.3l8.3-14.3H1140.7z M1124.2,627.2l-8.3-14.3l8.3-14.3h16.5l8.3,14.3l-8.3,14.3L1124.2,627.2z M1174.8,627.2
						l-8.3-14.3l8.3-14.3h16.5l8.3,14.3l-8.3,14.3H1174.8z M1225.4,627.2l-8.3-14.3l8.3-14.3h16.5l8.3,14.3l-8.3,14.3L1225.4,627.2z
						 M1276.1,627.2l-8.3-14.3l8.3-14.3h16.5l8.3,14.3l-8.3,14.3L1276.1,627.2z M1326.7,627.2l-8.3-14.3l8.3-14.3h16.5l8.3,14.3
						l-8.3,14.3L1326.7,627.2z M1377.3,627.2l-8.3-14.3l8.3-14.3h16.5l8.3,14.3l-8.3,14.3L1377.3,627.2z M1427.9,627.2l-8.3-14.3
						l8.3-14.3h16.5l8.3,14.3l-8.3,14.3H1427.9z M1478.6,627.2l-8.2-14.3l8.3-14.3h16.5l8.3,14.3l-8.3,14.3H1478.6z M1529.2,627.2
						l-8.3-14.3l8.3-14.3h16.5l8.3,14.3l-8.3,14.3H1529.2z M1554,262.1l-8.3,14.3h-16.5l-8.3-14.3l8.3-14.3h16.5L1554,262.1z
						 M1503.3,262.1l-8.3,14.3h-16.5l-8.2-14.3l8.3-14.3h16.5L1503.3,262.1z M1452.7,262.1l-8.3,14.3h-16.5l-8.3-14.3l8.3-14.3h16.5
						L1452.7,262.1z M1402.1,262.1l-8.3,14.3h-16.5l-8.3-14.3l8.3-14.3h16.5L1402.1,262.1z M1351.5,262.1l-8.3,14.3h-16.5l-8.3-14.3
						l8.3-14.3h16.5L1351.5,262.1z M1300.8,262.1l-8.3,14.3h-16.5l-8.3-14.3l8.3-14.3h16.5L1300.8,262.1z M1250.2,262.1l-8.3,14.3
						h-16.5l-8.3-14.3l8.3-14.3h16.5L1250.2,262.1z M1199.6,262.1l-8.2,14.3h-16.5l-8.3-14.3l8.3-14.3h16.5L1199.6,262.1z
						 M1149,262.1l-8.3,14.3h-16.5l-8.3-14.3l8.3-14.3h16.5L1149,262.1z M1141.3,656.7l8.3-14.3h16.5l8.3,14.3L1166,671h-16.5
						L1141.3,656.7z M1191.9,656.7l8.3-14.3h16.5l8.3,14.3l-8.3,14.3h-16.5L1191.9,656.7z M1242.5,656.7l8.3-14.3h16.6l8.3,14.3
						l-8.3,14.3h-16.6L1242.5,656.7z M1293.1,656.7l8.3-14.3h16.5l8.3,14.3l-8.3,14.3h-16.5L1293.1,656.7z M1343.8,656.7l8.3-14.3
						h16.5l8.3,14.3l-8.3,14.3H1352L1343.8,656.7z M1394.4,656.7l8.3-14.3h16.5l8.3,14.3l-8.3,14.3h-16.5L1394.4,656.7z M1445,656.7
						l8.3-14.3h16.5l8.3,14.3l-8.3,14.3h-16.5L1445,656.7z M1495.7,656.7l8.3-14.3h16.5l8.3,14.3l-8.3,14.3h-16.5L1495.7,656.7z
						 M1596.4,334.9h-16.5l-8.3-14.3l8.3-14.3h16.5l8.3,14.3L1596.4,334.9z M1604.7,291.4l-8.3,14.3h-16.5l-8.3-14.3l8.3-14.3h16.5
						L1604.7,291.4z M1571.1,291.1h-16.5l-8.3-14.4l8.2-14.3h16.5l8.3,14.3L1571.1,291.1z M1554.5,233.2h16.5l8.3,14.3l-8.3,14.3
						h-16.5l-8.3-14.3L1554.5,233.2z M1503.9,233.2h16.5l8.3,14.3l-8.3,14.3h-16.5l-8.3-14.3L1503.9,233.2z M1453.3,233.2h16.5
						l8.2,14.3l-8.3,14.3h-16.5l-8.3-14.3L1453.3,233.2z M1402.6,233.2h16.5l8.3,14.3l-8.3,14.3h-16.5l-8.3-14.3L1402.6,233.2z
						 M1352,233.2h16.5l8.2,14.3l-8.3,14.3H1352l-8.3-14.3L1352,233.2z M1301.4,233.2h16.5l8.2,14.3l-8.3,14.3h-16.6l-8.2-14.3
						L1301.4,233.2z M1250.8,233.2h16.6l8.2,14.3l-8.3,14.3h-16.5l-8.3-14.3L1250.8,233.2z M1200.1,233.2h16.5l8.2,14.3l-8.3,14.3
						h-16.5l-8.3-14.3L1200.1,233.2z M1149.5,233.2h16.5l8.3,14.3l-8.3,14.3h-16.5l-8.3-14.3L1149.5,233.2z M1098.9,233.2h16.5
						l8.3,14.3l-8.3,14.3h-16.5l-8.3-14.3L1098.9,233.2z M1065.3,262.1l8.3-14.3h16.5l8.3,14.3l-8.3,14.3h-16.5L1065.3,262.1z
						 M1098.9,262.4h16.5l8.3,14.4l-8.3,14.3h-16.5l-8.3-14.3L1098.9,262.4z M1098.9,291.6h16.5l8.3,14.3l-8.3,14.3h-16.5l-8.3-14.3
						L1098.9,291.6z M1098.9,320.9h16.5l8.3,14.3l-8.3,14.4h-16.5l-8.3-14.3L1098.9,320.9z M1065.3,349.8l8.3-14.3h16.5l8.3,14.3
						l-8.3,14.3h-16.5L1065.3,349.8z M1098.9,350.1h16.5l8.3,14.4l-8.3,14.3h-16.5l-8.3-14.3L1098.9,350.1z M1098.9,379.3h16.5
						l8.3,14.3l-8.3,14.3h-16.5l-8.3-14.3L1098.9,379.3z M1098.9,408.6h16.5l8.3,14.3l-8.3,14.4h-16.5l-8.3-14.3L1098.9,408.6z
						 M1065.3,437.5l8.3-14.3h16.5l8.3,14.3l-8.3,14.3h-16.5L1065.3,437.5z M1098.9,437.8h16.5l8.3,14.4l-8.3,14.3h-16.5l-8.3-14.3
						L1098.9,437.8z M1098.9,467h16.5l8.3,14.3l-8.3,14.3h-16.5l-8.3-14.3L1098.9,467z M1098.9,496.3h16.5l8.3,14.3l-8.3,14.3h-16.5
						l-8.3-14.4L1098.9,496.3z M1065.3,525.2l8.3-14.3h16.5l8.3,14.3l-8.3,14.4h-16.5L1065.3,525.2z M1098.9,525.5h16.5l8.3,14.3
						l-8.3,14.3h-16.5l-8.3-14.3L1098.9,525.5z M1098.9,554.7h16.5l8.3,14.3l-8.3,14.3h-16.5l-8.3-14.3L1098.9,554.7z M1098.9,584
						h16.5l8.3,14.3l-8.3,14.3h-16.5l-8.3-14.3L1098.9,584z M1065.3,612.9l8.3-14.4h16.5l8.3,14.3l-8.3,14.3h-16.5L1065.3,612.9z
						 M1098.9,613.2h16.5l8.3,14.3l-8.3,14.3h-16.5l-8.3-14.3L1098.9,613.2z M1090.6,656.8l8.3-14.3h16.5l8.3,14.3l-8.3,14.3h-16.5
						L1090.6,656.8z M1140.8,685.7h-16.5l-8.3-14.3l8.3-14.3h16.5l8.3,14.4L1140.8,685.7z M1191.4,685.7h-16.5l-8.3-14.3l8.3-14.3
						h16.5l8.3,14.4L1191.4,685.7z M1242,685.7h-16.5l-8.3-14.3l8.3-14.3h16.5l8.3,14.4L1242,685.7z M1292.6,685.7h-16.5l-8.3-14.3
						l8.3-14.3h16.5l8.3,14.4L1292.6,685.7z M1343.3,685.7h-16.5l-8.3-14.3l8.3-14.3h16.5l8.3,14.4L1343.3,685.7z M1393.9,685.7
						h-16.5l-8.3-14.3l8.3-14.3h16.5l8.3,14.4L1393.9,685.7z M1444.5,685.7H1428l-8.3-14.3l8.3-14.3h16.5l8.3,14.4L1444.5,685.7z
						 M1495.1,685.7h-16.5l-8.3-14.4l8.3-14.3h16.5l8.3,14.4L1495.1,685.7z M1545.8,685.7h-16.5l-8.3-14.3l8.3-14.3h16.5l8.3,14.4
						L1545.8,685.7z M1596.4,685.7h-16.5l-8.3-14.3l8.3-14.3h16.5l8.3,14.3L1596.4,685.7z M1604.7,642.1l-8.3,14.3h-16.5l-8.3-14.3
						l8.3-14.3h16.5L1604.7,642.1z M1571,641.8h-16.5l-8.3-14.4l8.2-14.3h16.5l8.3,14.3L1571,641.8z M1571,612.6h-16.5l-8.2-14.3
						l8.3-14.3h16.5l8.3,14.3L1571,612.6z M1596.4,598h-16.5l-8.3-14.3l8.3-14.3h16.5l8.3,14.3L1596.4,598z M1604.7,554.5l-8.3,14.3
						h-16.5l-8.3-14.3l8.3-14.3h16.5L1604.7,554.5z M1571,554.2h-16.5l-8.3-14.4l8.2-14.3h16.5l8.3,14.3L1571,554.2z M1571,524.9
						h-16.5l-8.2-14.3l8.3-14.4h16.5l8.3,14.2L1571,524.9z M1596.4,510.3h-16.5l-8.3-14.3l8.3-14.3h16.5l8.3,14.3L1596.4,510.3z
						 M1604.7,466.8l-8.3,14.3h-16.5l-8.3-14.3l8.3-14.3h16.5L1604.7,466.8z M1571,466.5h-16.5l-8.3-14.4l8.2-14.3h16.5l8.3,14.3
						L1571,466.5z M1571,437.2h-16.5l-8.2-14.3l8.3-14.4h16.5l8.3,14.3L1571,437.2z M1596.4,422.6h-16.5l-8.3-14.3l8.3-14.3h16.5
						l8.3,14.3L1596.4,422.6z M1604.7,379.1l-8.3,14.3h-16.5l-8.3-14.3l8.3-14.3h16.5L1604.7,379.1z M1571,378.8h-16.5l-8.3-14.4
						l8.2-14.3h16.5l8.3,14.3L1571,378.8z"/>
					
						<linearGradient id="Path_5_00000021809052530670946430000006156260641609094548_" gradientUnits="userSpaceOnUse" x1="641.3597" y1="1038.1733" x2="641.0867" y2="1037.1554" gradientTransform="matrix(476.4751 0 0 -392.18 -304706.7812 407775.8438)">
						<stop  offset="0.11" style="stop-color:#3dac9fc9"/>
						<stop  offset="0.84" style="stop-color:#3dac9f"/>
						<stop  offset="1" style="stop-color:#289588"/>
					</linearGradient>
					
						<path id="Path_5" style="opacity:0.16;fill:url(#Path_5_00000021809052530670946430000006156260641609094548_);enable-background:new    ;" d="
						M828,812.1c-192.1,48.7-238.3,128-249.2,167.4h201.3c18-48.3,53.8-92.3,120.5-115.8c201-70.6,148.5-276.4,148.5-276.4
						C1070.9,692.6,1024.8,762.2,828,812.1z"/>
				</g>
			</g>
			
				<linearGradient id="Path_7_00000132775440077538119950000013169743975733582527_" gradientUnits="userSpaceOnUse" x1="640.278" y1="1037.6306" x2="641.278" y2="1037.6306" gradientTransform="matrix(279.67 0 0 -204 -178722.2188 212034.1719)">
				<stop  offset="0.11" style="stop-color:#178377"/>
				<stop  offset="0.98" style="stop-color:#3dac9f"/>
				<stop  offset="1" style="stop-color:#3dac9f"/>
			</linearGradient>
			<path id="Path_7" style="fill:url(#Path_7_00000132775440077538119950000013169743975733582527_);" d="M624,255.5H344.3v204
				C529.7,413.1,598.5,321.1,624,255.5z"/>
			
				<linearGradient id="Path_8_00000097489796160622151410000013248833521593234110_" gradientUnits="userSpaceOnUse" x1="641.2073" y1="1038.788" x2="639.8253" y2="1036.4629" gradientTransform="matrix(271.26 0 0 -175.18 -173328.5469 182106.9062)">
				<stop  offset="0.11" style="stop-color:#48c4b5"/>
				<stop  offset="0.63" style="stop-color:#48c4b5e8"/>
				<stop  offset="1" style="stop-color:#50d2c2e8"/>
			</linearGradient>
			<path id="Path_8" style="fill:url(#Path_8_00000097489796160622151410000013248833521593234110_);" d="M344.3,430.7
				c193.7-26.3,253.1-122,271.3-175.2H344.3V430.7z"/>
			<g>
				<defs>
					<path id="SVGID_00000171711815882747814540000006582619558142033282_" d="M624,255.5H344.3v204
						C529.7,413.1,598.5,321.1,624,255.5z"/>
				</defs>
				<clipPath id="SVGID_00000018923462377866153630000014998873776351641236_">
					<use xlink:href="#SVGID_00000171711815882747814540000006582619558142033282_"  style="overflow:visible;"/>
				</clipPath>
				<g id="Group_2" style="clip-path:url(#SVGID_00000018923462377866153630000014998873776351641236_);">
					
						<radialGradient id="Path_9_00000075145773594992155580000000587962858024522429_" cx="641.4533" cy="1037.8738" r="0.528" gradientTransform="matrix(639.13 0 0 -536.05 -409602.7812 556586)" gradientUnits="userSpaceOnUse">
						<stop  offset="0" style="stop-color:#FFFFFF"/>
						<stop  offset="0.25" style="stop-color:#B9B9B9;stop-opacity:0.729"/>
						<stop  offset="0.62" style="stop-color:#575757;stop-opacity:0.341"/>
						<stop  offset="0.88" style="stop-color:#181818;stop-opacity:9.000000e-02"/>
						<stop  offset="1" style="stop-color:#000000;stop-opacity:0"/>
					</radialGradient>
					
						<path id="Path_9" style="opacity:0.19;fill:url(#Path_9_00000075145773594992155580000000587962858024522429_);enable-background:new    ;" d="
						M608.8,121.5h20l10.2-17.6l-10-17.3l10-17.3l-10.2-17.6h-20L599,34.8l10-17.3L598.8,0h-20.4l-10,17.3H549L539,0h-20.3l-10,17.3
						h-19.5L479.1,0h-20.3l-10,17.3h-19.5L419.3,0H399l-10,17.3h-19.5L359.5,0h-20.3l-10,17.3h-19.5L299.7,0h-20.3l-10,17.3h-19.5
						L239.9,0h-20.3l-10,17.3H190L180,0h-20.3l-10,17.3h-19.4L120.2,0H99.9l-10,17.3H70.4L60.4,0H40L30,17.3H10L-0.1,34.9l10.3,17.7
						h20l9.8,16.9l-10,17.3l10,17.3l-9.8,16.9h-20L0,138.5l10.2,17.6h20l9.8,16.9l-10,17.3l10,17.3l-9.8,16.9h-20L0,242.1l10.2,17.6
						h20l9.8,16.9l-10,17.3l10,17.3l-9.8,16.9h-20L0,345.7l10.2,17.6h20l9.8,16.9l-10,17.3l10,17.3l-9.8,16.9h-20L0,449.3L10.2,467
						h20l9.8,16.9l-10,17.3l10.2,17.6h20l10,17.3h20.3l10-17.3H120l10,17.3h20.3l10-17.3h19.6l10,17.3h20.3l10-17.3h19.5l10,17.3
						h20.3l10-17.3h19.2l10,17.3h20.3l10-17.3h19.5l10,17.3h20.3l10-17.3H419l10,17.3h20.3l10-17.3h19.5l10,17.3h20.3l10-17.3h19.5
						l10,17.3h20.2l10-17.3h19.5l10,17.3h20.3l10.2-17.6l-10-17.3l10-17.3l-10.2-17.6h-20l-9.8-16.9l9.8-16.9h20l10.2-17.6l-10-17.3
						l10-17.3l-10.2-17.6h-20l-9.8-16.9l9.8-16.9h20l10.2-17.6l-10-17.3l10-17.3L628.8,259h-20l-9.8-16.9l9.8-16.9h20l10.2-17.6
						l-10-17.3l10-17.3l-10.2-17.6h-20l-9.7-16.8L608.8,121.5z M598.4,138.1h-19.5l-9.8-16.9l9.8-17h19.5l9.8,16.9L598.4,138.1z
						 M598.4,173.3l9.8,16.9l-9.8,16.9h-19.5l-9.8-16.9l9.8-16.9H598.4z M598.4,276.9l9.8,16.9l-9.8,16.9h-19.5l-9.8-16.9l9.8-16.9
						H598.4z M598.4,380.5l9.8,17l-9.8,16.9h-19.5l-9.8-16.9l9.8-17L598.4,380.5z M598.4,484.1l9.8,16.9l-9.8,16.9h-19.5l-9.8-16.9
						l9.8-16.9H598.4z M549,500.7l-9.8-16.9l9.8-16.9h19.5l9.8,16.9l-9.8,16.9H549z M489.2,500.7l-9.8-16.9l9.8-16.9h19.5l9.8,16.9
						l-9.8,16.9H489.2z M429.4,500.7l-9.8-16.9l9.8-16.9h19.5l9.8,16.9l-9.8,16.9L429.4,500.7z M369.5,500.7l-9.8-16.9l9.8-16.9H389
						l9.8,16.9l-9.8,16.9L369.5,500.7z M309.7,500.7l-9.8-16.9l9.8-16.9h19.5l9.8,16.9l-9.8,16.9H309.7z M249.9,500.7l-9.8-16.9
						l9.8-16.9h19.5l9.8,16.9l-9.8,16.9H249.9z M190.1,500.7l-9.8-16.9l9.8-16.9h19.5l9.7,16.9l-9.8,16.9L190.1,500.7z M130.3,500.7
						l-9.8-16.9l9.8-16.9h19.5l9.8,16.9l-9.8,16.9H130.3z M70.5,500.7l-9.8-16.9l9.8-16.9H90l9.8,16.9L90,500.7H70.5z M119.8,35.2
						l9.8,16.9L119.9,69h-19.5l-9.8-17l9.8-16.9L119.8,35.2z M179.6,35.2l9.8,16.9L179.7,69h-19.5l-9.8-17l9.8-16.9L179.6,35.2z
						 M239.5,35.2l9.8,16.9L239.5,69H220l-9.8-17l9.8-16.9L239.5,35.2z M299.3,35.2l9.8,16.9l-9.7,16.9h-19.5l-9.8-17l9.8-16.9
						L299.3,35.2z M359.1,35.2l9.8,16.9L359.1,69h-19.5l-9.8-17l9.8-16.9L359.1,35.2z M418.9,35.2l9.8,16.9L419,69h-19.5l-9.8-17
						l9.8-16.9L418.9,35.2z M478.7,35.2l9.8,16.9L478.8,69h-19.5l-9.8-17l9.8-16.9L478.7,35.2z M538.6,35.2l9.8,17l-9.8,16.9h-19.5
						l-9.8-17l9.7-16.9L538.6,35.2z M598.4,69.7l9.8,16.9l-9.8,16.9h-19.5l-9.8-16.9l9.8-16.9H598.4z M519.1,483.5l-9.7-17l9.7-16.9
						h19.5l9.7,16.9l-9.8,16.9H519.1z M459.3,483.5l-9.8-17l9.8-16.9h19.5l9.8,16.9l-9.7,16.9H459.3z M399.4,483.5l-9.8-17l9.8-16.9
						h19.5l9.8,16.9l-9.8,16.9H399.4z M339.6,483.5l-9.8-17l9.8-16.9h19.5l9.8,16.9l-9.8,16.9H339.6z M279.8,483.5l-9.8-17l9.8-16.9
						h19.6l9.8,16.9l-9.8,16.9H279.8z M220,483.5l-9.8-17l9.8-16.9h19.5l9.8,16.9l-9.8,16.9H220z M160.2,483.5l-9.8-17l9.8-16.9
						h19.5l9.8,16.9l-9.7,16.9H160.2z M100.3,483.5l-9.8-17l9.8-16.9h19.5l9.8,16.9l-9.8,16.9H100.3z M119.8,69.8l9.8,16.9
						l-9.8,16.9h-19.5l-9.8-16.9l9.8-16.9H119.8z M179.7,69.8l9.8,16.9l-9.8,16.9h-19.5l-9.8-16.9l9.8-16.9H179.7z M239.5,69.8
						l9.8,16.9l-9.8,16.9H220l-9.8-16.9l9.8-16.9H239.5z M299.3,69.8l9.8,16.9l-9.7,16.9h-19.5l-9.8-16.9l9.8-16.9L299.3,69.8z
						 M359.1,69.8l9.8,16.9l-9.8,16.9h-19.5l-9.8-16.9l9.8-16.9L359.1,69.8z M418.9,69.8l9.8,16.9l-9.8,16.9h-19.5l-9.8-16.9
						l9.8-16.9H418.9z M478.8,69.8l9.8,16.9l-9.8,16.9h-19.5l-9.8-16.9l9.8-16.9H478.8z M538.6,69.8l9.8,16.9l-9.8,16.9h-19.5
						l-9.7-16.9l9.8-16.9L538.6,69.8z M549,431.7l-9.8-16.9l9.8-16.9h19.5l9.8,16.9l-9.8,16.9H549z M519,449l-9.7-16.9l9.8-17h19.5
						l9.7,16.9l-9.8,17L519,449z M459.2,449l-9.8-16.9l9.8-17h19.5l9.8,16.9l-9.8,17L459.2,449z M399.4,449l-9.8-16.9l9.8-17H419
						l9.8,16.9l-9.8,17L399.4,449z M339.6,449l-9.8-16.9l9.8-17h19.5l9.8,16.9l-9.8,17L339.6,449z M279.8,449l-9.8-16.9l9.8-17h19.5
						l9.8,16.9l-9.8,17L279.8,449z M219.9,449l-9.8-16.9l9.8-17h19.5l9.8,16.9l-9.8,17L219.9,449z M160.1,449l-9.8-16.9l9.8-17h19.5
						l9.8,16.9l-9.8,17L160.1,449z M100.3,449l-9.8-16.9l9.8-17h19.5l9.8,16.9l-9.8,17L100.3,449z M70.4,431.7l-9.8-16.9l9.8-16.9
						h19.5l9.8,16.9l-9.8,16.9H70.4z M89.9,87.1l9.8,16.9l-9.8,16.9H70.4L60.7,104l9.8-16.9H89.9z M119.9,104.3l9.8,16.9l-9.8,17
						h-19.5l-9.8-16.9l9.8-17L119.9,104.3z M149.8,87.1l9.8,16.9l-9.8,16.9h-19.5l-9.8-16.9l9.8-16.9H149.8z M179.7,104.3l9.8,16.9
						l-9.8,17h-19.5l-9.8-16.9l9.8-17L179.7,104.3z M209.6,87.1l9.8,16.9l-9.8,16.9h-19.5l-9.7-17l9.8-16.9L209.6,87.1z
						 M239.5,104.3l9.8,16.9l-9.8,17h-19.5l-9.7-16.9l9.8-17L239.5,104.3z M269.4,87.1l9.8,16.9l-9.8,16.9h-19.5l-9.8-16.9l9.8-16.9
						H269.4z M299.3,104.3l9.8,16.9l-9.8,17h-19.5l-9.8-16.9l9.8-17L299.3,104.3z M329.2,87l9.8,16.9l-9.8,16.9h-19.5l-9.8-16.9
						l9.8-16.9L329.2,87z M359.1,104.3l9.8,16.9l-9.8,17h-19.5l-9.8-16.9l9.8-17L359.1,104.3z M389,87l9.8,16.9l-9.8,16.9h-19.5
						l-9.8-16.9l9.8-16.9L389,87z M419,104.3l9.8,16.9l-9.8,17h-19.5l-9.8-16.9l9.8-17L419,104.3z M448.9,87l9.8,16.9l-9.8,16.9
						h-19.5l-9.8-16.9l9.8-16.9L448.9,87z M478.8,104.3l9.8,16.9l-9.8,17h-19.5l-9.8-16.9l9.8-17L478.8,104.3z M508.7,87l9.8,16.9
						l-9.8,16.9h-19.5l-9.8-16.9l9.8-16.9L508.7,87z M538.6,104.3l9.8,16.9l-9.8,17H519l-9.7-16.9l9.8-17L538.6,104.3z M568.5,87
						l9.8,16.9l-9.8,16.9H549l-9.8-16.9L549,87L568.5,87z M519.1,414.4l-9.7-16.9l9.7-17h19.5l9.8,17l-9.8,16.9L519.1,414.4z
						 M489.2,397.2l-9.8-16.9l9.8-16.9h19.5l9.8,16.9l-9.8,16.9H489.2z M459.3,414.4l-9.8-16.9l9.8-17h19.5l9.8,17l-9.8,16.9
						L459.3,414.4z M429.3,397.1l-9.8-16.9l9.8-16.9h19.5l9.8,16.9l-9.8,16.9H429.3z M399.4,414.4l-9.8-16.9l9.8-17H419l9.8,17
						l-9.8,16.9L399.4,414.4z M369.5,397.1l-9.8-16.9l9.8-16.9H389l9.8,16.9l-9.8,16.9H369.5z M339.6,414.4l-9.8-16.9l9.8-17h19.5
						l9.8,17l-9.8,16.9H339.6z M309.7,397.2l-9.8-16.9l9.8-16.9h19.5l9.8,16.9l-9.8,16.9H309.7z M279.8,414.4l-9.8-16.9l9.8-17h19.5
						l9.8,17l-9.8,16.9H279.8z M249.9,397.2l-9.8-16.9l9.8-16.9h19.5l9.8,16.9l-9.8,16.9H249.9z M220,414.4l-9.8-16.9l9.8-16.9h19.5
						l9.8,16.9l-9.8,16.9L220,414.4z M190.1,397.2l-9.7-16.9l9.8-16.9h19.5l9.8,16.9l-9.8,16.9L190.1,397.2z M160.2,414.4l-9.8-16.9
						l9.8-16.9h19.5l9.8,16.9l-9.8,16.9L160.2,414.4z M130.3,397.2l-9.8-16.9l9.8-16.9h19.5l9.8,16.9l-9.8,16.9H130.3z M100.3,414.4
						l-9.8-16.9l9.8-17h19.5l9.8,17l-9.8,16.9L100.3,414.4z M119.8,138.8l9.8,17l-9.8,16.9h-19.5l-9.8-17l9.8-16.9L119.8,138.8z
						 M179.6,138.8l9.8,17l-9.8,16.9h-19.5l-9.8-17l9.8-16.9L179.6,138.8z M239.4,138.8l9.8,17l-9.8,16.9H220l-9.8-17l9.8-16.9
						L239.4,138.8z M299.3,138.8l9.8,17l-9.7,16.8h-19.5l-9.8-17l9.8-16.9L299.3,138.8z M359.1,138.8l9.8,17l-9.7,16.8h-19.5
						l-9.8-17l9.8-16.9L359.1,138.8z M418.9,138.8l9.8,17l-9.7,16.8h-19.5l-9.8-17l9.8-16.9L418.9,138.8z M478.7,138.8l9.8,17
						l-9.8,16.9h-19.5l-9.8-17l9.8-16.9L478.7,138.8z M538.5,138.8l9.8,17l-9.8,16.9h-19.5l-9.8-17l9.8-16.9L538.5,138.8z
						 M538.5,379.9H519l-9.7-17l9.7-16.9h19.5l9.8,17L538.5,379.9z M459.2,379.9l-9.8-16.9l9.8-16.9h19.5l9.8,17l-9.8,16.9
						L459.2,379.9z M399.4,379.9l-9.7-17l9.8-16.9h19.5l9.8,17l-9.8,16.9L399.4,379.9z M339.6,379.9l-9.8-16.9l9.8-16.9h19.6l9.8,17
						l-9.8,16.9H339.6z M279.8,379.9l-9.8-16.9l9.8-16.9h19.6l9.8,17l-9.8,16.9H279.8z M219.9,379.9l-9.8-16.9l9.8-16.9h19.5l9.8,17
						l-9.8,16.9L219.9,379.9z M160.1,379.9l-9.8-17l9.8-16.9h19.5l9.8,17l-9.8,16.9L160.1,379.9z M100.3,379.9l-9.8-16.9l9.8-16.9
						h19.5l9.8,17l-9.8,16.9L100.3,379.9z M119.8,173.4l9.8,16.9l-9.8,16.9h-19.5l-9.8-16.9l9.8-16.9H119.8z M179.6,173.4l9.8,16.9
						l-9.8,16.9h-19.5l-9.8-16.9l9.8-16.9H179.6z M239.5,173.4l9.8,16.9l-9.8,16.9h-19.5l-9.8-16.9l9.8-16.9H239.5z M299.3,173.4
						l9.8,16.9l-9.7,16.9h-19.5l-9.8-16.9l9.8-16.9H299.3z M359.1,173.4l9.8,16.9l-9.7,16.9h-19.5l-9.8-16.9l9.8-16.9H359.1z
						 M418.9,173.4l9.8,16.9l-9.7,16.9h-19.5l-9.8-16.9l9.8-16.9H418.9z M478.7,173.4l9.8,16.9l-9.8,16.9h-19.5l-9.8-16.9l9.8-16.9
						H478.7z M538.5,173.4l9.8,16.9l-9.8,16.9h-19.5l-9.7-16.9l9.8-16.9H538.5z M538.5,277l9.8,16.9l-9.8,16.9h-19.5l-9.7-16.9
						l9.8-16.9H538.5z M459.2,345.4l-9.8-16.9l9.8-17h19.5l9.8,16.9l-9.8,17L459.2,345.4z M399.4,345.4l-9.8-16.9l9.8-17H419
						l9.8,16.9l-9.8,17L399.4,345.4z M339.6,345.4l-9.8-16.9l9.8-16.9h19.5l9.8,16.9l-9.8,17L339.6,345.4z M279.8,345.4l-9.8-16.9
						l9.8-17h19.5l9.8,16.9l-9.8,17L279.8,345.4z M220,345.4l-9.8-16.9l9.8-17h19.5l9.8,16.9l-9.8,17L220,345.4z M160.1,345.4
						l-9.8-16.9l9.8-17h19.5l9.8,16.9l-9.8,17L160.1,345.4z M100.3,310.8l-9.8-16.9l9.8-16.9h19.5l9.8,16.9l-9.8,16.9H100.3z
						 M149.8,190.6l9.8,16.9l-9.8,16.9h-19.5l-9.8-16.9l9.8-16.9L149.8,190.6z M179.7,207.9l9.8,16.9l-9.8,17h-19.5l-9.8-16.9
						l9.8-17L179.7,207.9z M209.6,190.6l9.8,16.9l-9.8,16.9h-19.5l-9.7-16.9l9.8-16.9L209.6,190.6z M239.5,207.9l9.8,16.9l-9.8,17
						h-19.5l-9.7-16.9l9.8-17L239.5,207.9z M269.4,190.6l9.8,16.9l-9.8,16.9h-19.5l-9.8-16.9l9.8-16.9L269.4,190.6z M299.3,207.9
						l9.8,16.9l-9.8,17h-19.5l-9.8-16.9l9.8-17L299.3,207.9z M329.2,190.6l9.8,16.9l-9.8,16.9h-19.5l-9.8-16.9l9.8-16.9L329.2,190.6
						z M359.1,207.9l9.8,16.9l-9.8,17h-19.5l-9.8-16.9l9.8-17L359.1,207.9z M389,190.6l9.8,16.9l-9.8,16.9h-19.5l-9.8-16.9l9.8-16.9
						H389z M419,207.9l9.8,16.9l-9.8,17h-19.5l-9.8-16.9l9.8-17L419,207.9z M448.9,190.6l9.8,16.9l-9.8,16.9h-19.5l-9.8-16.9
						l9.8-16.9H448.9z M478.8,207.9l9.8,16.9l-9.8,17h-19.5l-9.8-16.9l9.8-17L478.8,207.9z M508.7,190.6l9.8,16.9l-9.8,16.9h-19.5
						l-9.8-16.9l9.8-16.9L508.7,190.6z M489.2,293.5l-9.8-16.9l9.8-16.9h19.5l9.8,16.9l-9.8,16.9H489.2z M459.3,310.8l-9.8-16.9
						l9.8-16.9h19.5l9.8,16.9l-9.8,16.9H459.3z M429.3,293.5l-9.8-16.9l9.8-16.9h19.5l9.8,16.9l-9.8,16.9H429.3z M399.4,310.8
						l-9.8-16.9l9.8-16.9H419l9.8,16.9l-9.8,16.9H399.4z M369.5,293.5l-9.8-16.9l9.8-16.9H389l9.8,16.9l-9.8,16.9H369.5z
						 M339.6,310.8l-9.8-16.9l9.8-16.9h19.5l9.8,16.9l-9.8,16.9H339.6z M309.7,293.5l-9.8-16.9l9.8-16.9h19.5l9.8,16.9l-9.8,16.9
						H309.7z M279.8,310.8l-9.8-16.9l9.8-16.9h19.5l9.8,16.9l-9.8,16.9H279.8z M249.9,293.5l-9.8-16.9l9.8-16.9h19.5l9.8,16.9
						l-9.8,16.9H249.9z M220,310.8l-9.8-16.9L220,277h19.5l9.8,16.9l-9.8,16.9H220z M190.1,293.5l-9.8-16.9l9.8-16.9h19.5l9.7,16.9
						l-9.7,16.9H190.1z M160.2,310.8l-9.8-16.9l9.8-16.9h19.5l9.8,16.9l-9.8,16.9H160.2z M130.3,293.5l-9.8-16.9l9.8-16.9h19.5
						l9.8,16.9l-9.8,16.9H130.3z M179.6,242.4l9.8,17l-9.8,16.9h-19.5l-9.8-17l9.8-16.9L179.6,242.4z M239.5,242.4l9.8,17l-9.8,16.9
						H220l-9.8-17l9.8-16.9L239.5,242.4z M299.3,242.4l9.8,17l-9.7,16.8h-19.5l-9.8-16.9l9.8-16.9L299.3,242.4z M359.1,242.4l9.8,17
						l-9.8,16.8h-19.5l-9.8-16.9l9.8-16.9L359.1,242.4z M418.9,242.4l9.8,17l-9.8,16.8h-19.5l-9.8-16.9l9.8-16.9L418.9,242.4z
						 M478.7,242.4l9.8,17l-9.8,16.9h-19.5l-9.8-17l9.8-16.9L478.7,242.4z M508.6,225.1l9.8,16.9l-9.8,16.9h-19.5l-9.8-16.9
						l9.8-16.9L508.6,225.1z M448.8,225.1l9.8,16.9l-9.8,16.9h-19.5l-9.8-16.9l9.8-16.9L448.8,225.1z M389,225.1l9.8,16.9L389,259
						h-19.5l-9.8-16.9l9.8-16.9L389,225.1z M329.2,225.1l9.8,16.9l-9.8,16.9h-19.5l-9.8-16.9l9.8-16.9L329.2,225.1z M269.4,225.1
						l9.8,16.9l-9.8,16.9h-19.5l-9.8-16.9l9.8-16.9L269.4,225.1z M209.6,225.1l9.8,16.9l-9.8,16.9h-19.5l-9.8-16.9l9.8-16.9
						L209.6,225.1z M149.8,225.1l9.8,16.9l-9.8,16.9h-19.5l-9.8-16.9l9.8-16.9H149.8z M130.3,328.1l-9.8-16.9l9.8-16.9h19.5
						l9.8,16.9l-9.8,16.9H130.3z M190.1,328.1l-9.8-16.9l9.8-16.9h19.5l9.7,16.9l-9.8,16.9H190.1z M249.9,328.1l-9.8-16.9l9.8-16.9
						h19.5l9.8,16.9l-9.8,16.9H249.9z M309.7,328.1l-9.8-16.9l9.8-16.9h19.5l9.8,16.9l-9.8,16.9H309.7z M369.5,328.1l-9.8-16.9
						l9.8-16.9H389l9.8,16.9l-9.8,16.9H369.5z M429.4,328.1l-9.8-16.9l9.8-16.9h19.5l9.8,16.9l-9.8,16.9H429.4z M489.2,328.1
						l-9.8-16.9l9.8-16.9h19.5l9.8,16.9l-9.8,16.9H489.2z M508.7,156.1l9.8,16.9l-9.8,16.9h-19.5l-9.8-16.9l9.8-16.9H508.7z
						 M448.9,156.1l9.8,16.9l-9.8,16.9h-19.5l-9.8-16.9l9.8-16.9L448.9,156.1z M389,156.1l9.8,16.9l-9.8,16.9h-19.5l-9.8-16.9
						l9.8-16.9L389,156.1z M329.2,156.1L339,173l-9.8,16.9h-19.5l-9.8-16.9l9.8-16.9H329.2z M269.4,156.1l9.8,16.9l-9.8,16.9h-19.5
						l-9.8-16.9l9.8-16.9H269.4z M209.6,156.1l9.7,16.9l-9.8,16.9h-19.5l-9.7-16.9l9.8-16.9L209.6,156.1z M149.8,156.1l9.8,16.9
						l-9.8,16.9h-19.5l-9.8-16.9l9.8-16.9H149.8z M100.3,207.9h19.5l9.8,16.9l-9.8,17h-19.5l-9.8-16.9L100.3,207.9z M100.3,242.4
						h19.5l9.8,17l-9.8,16.9h-19.5l-9.8-17L100.3,242.4z M100.3,311.5h19.5l9.8,16.9l-9.8,17h-19.5l-9.8-16.9L100.3,311.5z
						 M130.2,362.6l-9.8-16.9l9.8-16.9h19.5l9.8,16.9l-9.8,16.9H130.2z M190,362.6l-9.8-16.9l9.8-16.9h19.5l9.8,16.9l-9.8,16.9
						L190,362.6z M249.9,362.6l-9.8-16.9l9.8-16.9h19.5l9.8,16.9l-9.8,16.9L249.9,362.6z M309.7,362.6l-9.8-16.9l9.8-16.9h19.5
						l9.8,16.9l-9.8,16.9H309.7z M369.5,362.6l-9.8-17l9.8-16.9H389l9.8,16.9l-9.8,16.9L369.5,362.6z M429.3,362.6l-9.8-17l9.8-16.9
						h19.5l9.8,16.9l-9.8,16.9L429.3,362.6z M489.1,362.6l-9.8-17l9.8-16.9h19.5l9.8,16.9l-9.8,16.9L489.1,362.6z M538.5,345.4H519
						l-9.7-16.9l9.8-17h19.5l9.7,16.9L538.5,345.4z M538.5,276.3H519l-9.7-17l9.7-16.9h19.5l9.8,17L538.5,276.3z M538.5,241.8H519
						l-9.7-16.9l9.8-17h19.5l9.7,16.9L538.5,241.8z M508.6,121.5l9.8,17l-9.8,16.9h-19.5l-9.8-16.9l9.8-17H508.6z M448.8,121.5
						l9.8,17l-9.8,16.9h-19.5l-9.8-16.9l9.8-17H448.8z M389,121.5l9.8,17l-9.8,16.9h-19.5l-9.8-16.9l9.8-17H389z M329.2,121.5
						l9.8,17l-9.8,16.9h-19.5l-9.8-16.9l9.8-17H329.2z M269.3,121.5l9.8,17l-9.8,16.9h-19.5l-9.8-16.9l9.8-17H269.3z M209.5,121.5
						l9.8,17l-9.8,16.9h-19.5l-9.8-16.9l9.8-16.9L209.5,121.5z M149.7,121.5l9.8,16.9l-9.8,16.9h-19.5l-9.8-16.8l9.8-17H149.7z
						 M89.9,121.5l9.8,16.9l-9.8,16.9H70.4l-9.7-16.8l9.8-16.9L89.9,121.5z M89.9,156.1l9.8,16.9l-9.8,16.9H70.4L60.6,173l9.8-16.9
						H89.9z M89.9,190.6l9.9,16.9L90,224.4H70.5l-9.8-16.9l9.8-16.9L89.9,190.6z M89.9,225.1l9.8,16.9L89.9,259H70.4l-9.8-16.9
						l9.8-16.9H89.9z M89.9,259.7l9.8,16.9L90,293.5H70.5l-9.8-16.9l9.8-16.9L89.9,259.7z M89.9,294.2l9.8,16.9L89.9,328H70.4
						l-9.8-16.9l9.8-16.9H89.9z M89.9,328.7l9.8,16.9l-9.8,16.9H70.4l-9.8-16.9l9.8-16.9H89.9z M89.9,363.3l9.8,16.9l-9.8,16.9H70.4
						l-9.8-16.9l9.8-16.9H89.9z M130.2,431.6l-9.8-16.9l9.8-16.9h19.5l9.8,16.9l-9.8,16.9H130.2z M190,431.6l-9.7-16.9l9.8-16.9
						h19.5l9.8,16.9l-9.8,16.9L190,431.6z M249.8,431.6l-9.8-16.9l9.8-16.9h19.5l9.8,16.9l-9.8,16.9H249.8z M309.7,431.6l-9.8-16.9
						l9.8-16.9h19.5l9.8,16.9l-9.8,16.9H309.7z M369.5,431.6l-9.8-16.9l9.8-16.9H389l9.8,16.9l-9.8,16.9L369.5,431.6z M429.3,431.6
						l-9.8-16.9l9.8-16.9h19.5l9.8,16.9l-9.8,16.9L429.3,431.6z M489.1,431.6l-9.8-16.9l9.8-16.9h19.5l9.8,16.9l-9.8,16.9H489.1z
						 M568.4,397.1h-19.5l-9.8-16.9l9.8-16.9h19.5l9.8,16.9L568.4,397.1z M548.9,362.6l-9.8-16.9l9.8-16.9h19.5l9.8,16.9l-9.8,16.9
						H548.9z M548.9,328l-9.8-16.9l9.8-16.9h19.5l9.8,16.9l-9.8,16.9H548.9z M568.5,293.5H549l-9.8-16.9l9.8-16.9h19.5l9.8,16.9
						L568.5,293.5z M549,259l-9.8-16.9l9.8-16.9h19.5l9.8,16.9l-9.8,16.9H549z M549,224.5l-9.7-16.9l9.8-16.9h19.5l9.8,16.9
						l-9.8,16.9L549,224.5z M568.5,189.9H549l-9.8-16.9l9.8-16.9h19.5l9.8,16.9L568.5,189.9z M548.9,155.4l-9.7-16.9l9.8-17h19.5
						l9.8,17l-9.8,16.9L548.9,155.4z M568.5,52.5l9.8,16.9l-9.8,16.9H549l-9.8-16.9l9.8-16.9H568.5z M508.7,52.5l9.8,16.9l-9.8,16.9
						h-19.5l-9.8-16.9l9.8-16.9H508.7z M448.9,52.5l9.8,16.9l-9.8,16.9h-19.5l-9.8-16.9l9.8-16.9H448.9z M389,52.5l9.8,16.9
						L389,86.3h-19.5l-9.8-16.9l9.8-16.9H389z M329.2,52.5l9.8,16.9l-9.8,16.9h-19.5L300,69.4l9.8-16.9H329.2z M269.4,52.5l9.8,16.9
						l-9.8,16.9h-19.5l-9.8-16.9l9.8-16.9H269.4z M209.6,52.5l9.8,16.9l-9.8,16.9h-19.5l-9.8-17l9.8-16.9L209.6,52.5z M149.8,52.5
						l9.8,16.9l-9.8,16.9h-19.5l-9.8-16.9l9.8-16.9H149.8z M90,52.5l9.8,16.9L90,86.4H70.5l-9.8-16.9l9.8-16.9H90z M70.4,466.3
						l-9.8-16.9l9.8-16.9h19.5l9.8,16.9l-9.8,16.9H70.4z M130.2,466.3l-9.8-16.9l9.8-16.9h19.5l9.8,16.9l-9.8,16.9H130.2z
						 M190.1,466.3l-9.8-16.9l9.8-16.9h19.5l9.8,16.9l-9.8,16.9H190.1z M249.9,466.3l-9.8-16.9l9.8-16.9h19.5l9.8,16.9l-9.8,16.9
						L249.9,466.3z M309.7,466.3l-9.8-16.9l9.8-16.9h19.5l9.8,16.9l-9.8,16.9H309.7z M369.5,466.3l-9.8-17l9.8-16.9H389l9.8,16.9
						l-9.8,16.9L369.5,466.3z M429.3,466.3l-9.8-16.9l9.8-17h19.5l9.8,16.9l-9.8,16.9L429.3,466.3z M489.1,466.3l-9.8-17l9.8-16.9
						h19.5l9.8,16.9l-9.8,16.9L489.1,466.3z M549,466.3l-9.8-16.9l9.8-16.9h19.5l9.8,16.9l-9.8,16.9H549z M578.2,34.9l-9.8,16.9H549
						l-9.8-16.9l9.8-16.9h19.5L578.2,34.9z M518.4,34.9l-9.8,16.9h-19.5l-9.8-16.9l9.8-16.9h19.5L518.4,34.9z M458.6,34.9l-9.8,16.9
						h-19.5l-9.8-16.9l9.8-16.9h19.5L458.6,34.9z M398.8,34.9L389,51.8h-19.5l-9.8-16.9l9.8-16.9H389L398.8,34.9z M339,34.9
						l-9.8,16.9h-19.5l-9.8-16.9l9.8-16.9h19.5L339,34.9z M279.1,34.9l-9.8,16.9h-19.5l-9.8-16.9l9.8-16.9h19.5L279.1,34.9z
						 M219.3,34.9l-9.8,16.9h-19.5l-9.8-16.9l9.8-16.9h19.5L219.3,34.9z M159.5,34.9l-9.8,16.9h-19.5l-9.8-16.9l9.8-16.9h19.5
						L159.5,34.9z M99.7,34.9l-9.8,16.9H70.4l-9.8-16.9l9.8-16.9h19.5L99.7,34.9z M90.6,501.1l9.8-16.9h19.5l9.8,16.9l-9.8,16.9
						h-19.5L90.6,501.1z M150.4,501.1l9.8-16.9h19.5l9.8,16.9l-9.8,16.9h-19.5L150.4,501.1z M210.2,501.1l9.8-16.9h19.5l9.8,16.9
						l-9.8,16.9H220L210.2,501.1z M270,501.1l9.8-16.9h19.5l9.8,16.9l-9.8,16.9h-19.5L270,501.1z M329.9,501.1l9.8-16.9h19.5
						l9.8,16.9l-9.8,16.9h-19.5L329.9,501.1z M389.7,501.1l9.8-16.9H419l9.8,16.9L419,518h-19.5L389.7,501.1z M449.5,501.1l9.8-16.9
						h19.5l9.8,16.9l-9.8,16.9h-19.5L449.5,501.1z M509.3,501.1l9.8-16.9h19.5l9.8,16.9l-9.8,16.9h-19.5L509.3,501.1z M628.3,120.9
						h-19.5l-9.8-16.9l9.8-16.9h19.5l9.8,16.9L628.3,120.9z M638.1,69.4l-9.8,16.9h-19.5L599,69.4l9.8-16.9h19.5L638.1,69.4z
						 M598.4,69.1h-19.5l-9.8-17l9.8-16.9h19.5l9.8,16.9L598.4,69.1z M578.8,0.7h19.5l9.8,16.9l-9.8,16.9h-19.5l-9.8-16.9L578.8,0.7
						z M519,0.7h19.5l9.8,16.9l-9.8,16.9H519l-9.8-16.9L519,0.7z M459.2,0.7h19.5l9.8,16.9l-9.8,16.9h-19.5l-9.8-16.9L459.2,0.7z
						 M399.4,0.7H419l9.8,16.9l-9.8,16.9h-19.5l-9.8-16.9L399.4,0.7z M339.6,0.7h19.6l9.8,16.9l-9.8,16.9h-19.5l-9.8-16.9L339.6,0.7
						z M279.8,0.7h19.6l9.8,16.9l-9.8,16.9h-19.6L270,17.6L279.8,0.7z M219.9,0.7h19.6l9.8,16.9l-9.8,16.9H220l-9.8-16.9L219.9,0.7z
						 M160.1,0.7h19.5l9.8,16.9l-9.8,16.9h-19.5l-9.8-16.9L160.1,0.7z M100.3,0.7h19.5l9.8,16.9l-9.8,16.9h-19.5l-9.8-16.9
						L100.3,0.7z M40.5,0.7H60l9.8,16.9L60,34.5H40.5l-9.8-16.9L40.5,0.7z M0.8,34.9L10.5,18h19.5l9.8,16.9l-9.8,16.9H10.5L0.8,34.9
						z M40.5,35.2H60l9.8,16.9L60,69.1H40.5l-9.8-16.9L40.5,35.2z M40.5,69.8H60l9.8,16.9L60,103.6H40.5l-9.8-16.9L40.5,69.8z
						 M40.5,104.3H60l9.8,16.9l-9.8,17H40.5l-9.8-16.9L40.5,104.3z M0.8,138.5l9.8-16.9h19.5l9.8,16.9l-9.8,16.9H10.6L0.8,138.5z
						 M40.5,138.9H60l9.8,17L60,172.8H40.5l-9.8-16.9L40.5,138.9z M40.5,173.4H60l9.8,16.9L60,207.3H40.5l-9.8-16.9L40.5,173.4z
						 M40.5,207.9H60l9.8,16.9l-9.8,17H40.5l-9.8-16.9L40.5,207.9z M0.8,242.1l9.8-16.9h19.5l9.8,16.9l-9.8,16.9H10.6L0.8,242.1z
						 M40.5,242.5H60l9.8,17L60,276.4H40.5l-9.8-17L40.5,242.5z M40.5,277H60l9.8,16.9L60,310.9H40.5l-9.8-16.9L40.5,277z
						 M40.5,311.5H60l9.8,16.9l-9.8,17H40.5l-9.8-16.9L40.5,311.5z M0.8,345.7l9.8-16.9h19.5l9.8,16.9l-9.8,16.9H10.6L0.8,345.7z
						 M40.5,346.1H60l9.8,17L60,380H40.5L30.7,363L40.5,346.1z M40.5,380.6H60l9.8,16.9L60,414.5H40.5l-9.8-16.9L40.5,380.6z
						 M40.5,415.1H60l9.8,16.9L60,449H40.5l-9.8-16.9L40.5,415.1z M0.8,449.3l9.8-16.9h19.5l9.8,16.9l-9.8,16.9H10.6L0.8,449.3z
						 M40.5,449.7H60l9.8,17L60,483.5H40.5l-9.8-17L40.5,449.7z M30.7,501.1l9.8-16.9H60l9.8,16.9L60,518.1H40.5L30.7,501.1z
						 M90,535.3H70.5l-9.8-16.9l9.8-16.9H90l9.8,17L90,535.3z M149.8,535.3h-19.6l-9.8-16.9l9.8-16.9h19.5l9.8,17L149.8,535.3z
						 M209.6,535.3h-19.5l-9.7-17l9.8-16.9h19.5l9.8,17L209.6,535.3z M269.4,535.3h-19.5l-9.8-16.9l9.8-16.9h19.5l9.8,17
						L269.4,535.3z M329.3,535.3h-19.5l-9.8-16.9l9.8-16.9h19.5l9.8,17L329.3,535.3z M389.1,535.3h-19.5l-9.8-16.9l9.8-16.9H389
						l9.8,17L389.1,535.3z M448.9,535.3h-19.6l-9.8-16.9l9.8-17h19.5l9.8,17L448.9,535.3z M508.7,535.3h-19.5l-9.8-16.9l9.8-16.9
						h19.5l9.8,17L508.7,535.3z M568.5,535.3H549l-9.8-16.9l9.8-16.9h19.5l9.8,17L568.5,535.3z M628.4,535.3h-19.5l-9.8-16.9
						l9.8-16.9h19.5l9.8,16.9L628.4,535.3z M638.1,483.9l-9.8,16.9h-19.5l-9.8-16.9l9.8-16.9h19.5L638.1,483.9z M598.4,483.5h-19.5
						l-9.8-17l9.8-16.9h19.5l9.8,16.9L598.4,483.5z M598.4,449h-19.5l-9.8-16.9l9.8-17h19.5l9.8,16.9L598.4,449z M628.3,431.7h-19.5
						l-9.8-16.9l9.8-16.9h19.5l9.8,16.9L628.3,431.7z M638.1,380.2l-9.8,16.9h-19.5l-9.8-16.9l9.8-16.9h19.5L638.1,380.2z
						 M598.4,379.9h-19.5l-9.8-17l9.8-16.9h19.5l9.8,16.9L598.4,379.9z M598.4,345.4h-19.5l-9.8-16.9l9.8-17h19.5l9.8,16.9
						L598.4,345.4z M628.3,328.1h-19.5l-9.8-16.9l9.8-16.9h19.5l9.8,16.9L628.3,328.1z M638.1,276.6l-9.8,16.9h-19.5l-9.8-16.9
						l9.8-16.9h19.5L638.1,276.6z M598.4,276.3h-19.5l-9.8-16.9l9.8-16.9h19.5l9.8,16.9L598.4,276.3z M598.4,241.7h-19.5l-9.8-16.9
						l9.8-17h19.5l9.8,16.9L598.4,241.7z M628.3,224.5h-19.5l-9.8-16.9l9.8-16.9h19.5l9.8,16.9L628.3,224.5z M638.1,173l-9.8,16.9
						h-19.5L599,173l9.8-16.9h19.5L638.1,173z M598.4,172.7h-19.5l-9.8-17l9.8-16.9h19.5l9.8,16.9L598.4,172.7z"/>
				</g>
			</g>
			<g id="Group_3">
				
					<radialGradient id="Path_11_00000086659488872430079190000004305887089264555955_" cx="640.5788" cy="1037.7361" r="0.605" gradientTransform="matrix(234.3806 0 0 -234.35 -149659.4219 243550.2188)" gradientUnits="userSpaceOnUse">
					<stop  offset="0" style="stop-color:#FFFEFF"/>
					<stop  offset="0.24" style="stop-color:#FAFBFC"/>
					<stop  offset="0.51" style="stop-color:#EDF2F2"/>
					<stop  offset="0.8" style="stop-color:#D6E3E3"/>
					<stop  offset="1" style="stop-color:#C2D6D5"/>
				</radialGradient>
				<path id="Path_11" style="fill:url(#Path_11_00000086659488872430079190000004305887089264555955_);" d="M591.7,293.6
					c7.9-12.2,14.8-24.9,20.8-38.1h-2c-5.9,12.9-12.7,25.3-20.4,37.1C557,344.2,487.6,418.4,344.3,487.9v2
					C488.5,420.1,558.3,345.5,591.7,293.6z"/>
				
					<radialGradient id="Path_12_00000075125513352646778950000009927850702038694045_" cx="641.4294" cy="1037.8384" r="0.4363" gradientTransform="matrix(724.1028 0 0 -723.9901 -463660.3125 752002.1875)" gradientUnits="userSpaceOnUse">
					<stop  offset="0" style="stop-color:#FFFEFF"/>
					<stop  offset="0.24" style="stop-color:#FAFBFC"/>
					<stop  offset="0.51" style="stop-color:#EDF2F2"/>
					<stop  offset="0.8" style="stop-color:#D6E3E3"/>
					<stop  offset="1" style="stop-color:#C2D6D5"/>
				</radialGradient>
				<path id="Path_12" style="fill:url(#Path_12_00000075125513352646778950000009927850702038694045_);" d="M794.3,817
					c115.3-10,195.1-47.3,237.2-111c24.9-37.7,34.8-80.9,29.5-128.5c-4.5-40.5-20.4-83.8-45.9-125.3c-5-8.2-10.4-16.5-15.5-24.6
					c-33.9-53.2-68.9-108.1-59.1-172.1h-1.8c-9.8,64.5,25.3,119.6,59.4,173.1c5.2,8.1,10.5,16.5,15.5,24.6
					c56,91.1,61.9,182.9,16.4,251.8c-41.8,63.2-121.1,100.3-235.8,110.2c-126.4,10.9-207.2,49.3-240.3,114.2
					c-7.9,15.7-13,32.7-15,50.1h1.8c2-17.2,7-33.9,14.8-49.3C588.2,866,668.6,827.9,794.3,817z"/>
			</g>
		</g>
	</g>
</g>
</svg>
